<?xml version="1.0" encoding="UTF-8" standalone="no"?>
<svg
   xmlns:dc="http://purl.org/dc/elements/1.1/"
   xmlns:cc="http://creativecommons.org/ns#"
   xmlns:rdf="http://www.w3.org/1999/02/22-rdf-syntax-ns#"
   xmlns:svg="http://www.w3.org/2000/svg"
   xmlns="http://www.w3.org/2000/svg"
   xmlns:sodipodi="http://sodipodi.sourceforge.net/DTD/sodipodi-0.dtd"
   xmlns:inkscape="http://www.inkscape.org/namespaces/inkscape"
   sodipodi:docname="SideQuest Icon.svg"
   inkscape:version="1.0 (4035a4fb49, 2020-05-01)"
   id="svg8"
   version="1.1"
   viewBox="0 0 153.45833 124.35417"
   height="470"
   width="580"
   inkscape:export-filename="C:\pong-evolution\Logo\SideQuest Icon\580px by 470px.png"
   inkscape:export-xdpi="470"
   inkscape:export-ydpi="470">
  <defs
     id="defs2">
    <marker
       inkscape:isstock="true"
       style="overflow:visible"
       id="marker1175"
       refX="0"
       refY="0"
       orient="auto"
       inkscape:stockid="Arrow1Lstart">
      <path
         transform="matrix(0.8,0,0,0.8,10,0)"
         style="fill:#02b800;fill-opacity:1;fill-rule:evenodd;stroke:#02b800;stroke-width:1pt;stroke-opacity:1"
         d="M 0,0 5,-5 -12.5,0 5,5 Z"
         id="path1173" />
    </marker>
    <marker
       inkscape:isstock="true"
       style="overflow:visible"
       id="marker1147"
       refX="0"
       refY="0"
       orient="auto"
       inkscape:stockid="Arrow1Lstart">
      <path
         transform="matrix(0.8,0,0,0.8,10,0)"
         style="fill:#02b800;fill-opacity:1;fill-rule:evenodd;stroke:#02b800;stroke-width:1pt;stroke-opacity:1"
         d="M 0,0 5,-5 -12.5,0 5,5 Z"
         id="path1145" />
    </marker>
    <marker
       inkscape:isstock="true"
       style="overflow:visible"
       id="Arrow1Lstart"
       refX="0"
       refY="0"
       orient="auto"
       inkscape:stockid="Arrow1Lstart">
      <path
         transform="matrix(0.8,0,0,0.8,10,0)"
         style="fill:#02b800;fill-opacity:1;fill-rule:evenodd;stroke:#02b800;stroke-width:1pt;stroke-opacity:1"
         d="M 0,0 5,-5 -12.5,0 5,5 Z"
         id="path875" />
    </marker>
    <filter
       height="1.0607768"
       y="-0.030388415"
       width="1.038368"
       x="-0.019184014"
       id="filter1631"
       style="color-interpolation-filters:sRGB"
       inkscape:collect="always">
      <feGaussianBlur
         id="feGaussianBlur1633"
         stdDeviation="0.83793988"
         inkscape:collect="always" />
    </filter>
    <filter
       height="1.1240342"
       y="-0.062017113"
       width="1.0783021"
       x="-0.039151073"
       id="filter1651"
       style="color-interpolation-filters:sRGB"
       inkscape:collect="always">
      <feGaussianBlur
         id="feGaussianBlur1653"
         stdDeviation="1.7100806"
         inkscape:collect="always" />
    </filter>
    <filter
       height="1.1938035"
       y="-0.096901812"
       width="1.122347"
       x="-0.061173521"
       id="filter1671"
       style="color-interpolation-filters:sRGB"
       inkscape:collect="always">
      <feGaussianBlur
         id="feGaussianBlur1673"
         stdDeviation="2.6720023"
         inkscape:collect="always" />
    </filter>
  </defs>
  <sodipodi:namedview
     units="px"
     width="580mm"
     borderlayer="true"
     inkscape:showpageshadow="false"
     id="base"
     pagecolor="#a8a8ab"
     bordercolor="#ff0000"
     borderopacity="1"
     inkscape:pageopacity="0"
     inkscape:pageshadow="2"
     inkscape:zoom="1"
     inkscape:cx="374.75021"
     inkscape:cy="295.89958"
     inkscape:document-units="px"
     inkscape:current-layer="layer1"
     inkscape:document-rotation="0"
     showgrid="false"
     showborder="true"
     inkscape:window-width="1920"
     inkscape:window-height="1001"
     inkscape:window-x="-9"
     inkscape:window-y="-9"
     inkscape:window-maximized="1" />
  <metadata
     id="metadata5">
    <rdf:RDF>
      <cc:Work
         rdf:about="">
        <dc:format>image/svg+xml</dc:format>
        <dc:type
           rdf:resource="http://purl.org/dc/dcmitype/StillImage" />
        <dc:title></dc:title>
      </cc:Work>
    </rdf:RDF>
  </metadata>
  <g
     transform="translate(165.92477,35.076691)"
     inkscape:label="Layer 1"
     inkscape:groupmode="layer"
     id="layer1">
    <text
       id="text834"
       y="-162.81241"
       x="-103.66208"
       style="font-style:normal;font-variant:normal;font-weight:normal;font-stretch:normal;font-size:68.5078px;line-height:1.25;font-family:'Learning Curve';-inkscape-font-specification:'Learning Curve, Normal';font-variant-ligatures:normal;font-variant-caps:normal;font-variant-numeric:normal;font-variant-east-asian:normal;fill:#000000;fill-opacity:1;stroke:none;stroke-width:1.7127"
       xml:space="preserve"><tspan
         style="font-style:normal;font-variant:normal;font-weight:normal;font-stretch:normal;font-size:68.5078px;font-family:'Learning Curve';-inkscape-font-specification:'Learning Curve, Normal';font-variant-ligatures:normal;font-variant-caps:normal;font-variant-numeric:normal;font-variant-east-asian:normal;stroke-width:1.7127"
         y="-162.81241"
         x="-103.66208"
         id="tspan832"
         sodipodi:role="line">glow</tspan></text>
    <rect
       id="rect1322"
       width="153.45833"
       height="124.35416"
       x="-165.92477"
       y="-35.076691"
       style="fill:#000000;fill-opacity:1;stroke-width:0.230236" />
    <g
       transform="matrix(0.50812872,0,0,0.50812872,-45.217184,6.9578731)"
       id="g1824">
      <g
         aria-label="TUBE"
         id="text1779"
         style="font-style:normal;font-variant:normal;font-weight:normal;font-stretch:normal;font-size:10.5833px;line-height:1.25;font-family:Impact;-inkscape-font-specification:'Impact, Normal';font-variant-ligatures:normal;font-variant-caps:normal;font-variant-numeric:normal;font-variant-east-asian:normal;fill:#d45500;fill-opacity:1;stroke:none;stroke-width:0.264583"
         transform="matrix(6.154776,0,0,6.154776,772.82101,-445.20039)">
        <path
           d="m -145.20252,81.856528 v 1.674311 h -1.29191 v 6.692077 H -148.67 v -6.692077 h -1.28674 v -1.674311 z"
           style="font-style:normal;font-variant:normal;font-weight:normal;font-stretch:normal;font-size:10.5833px;font-family:Impact;-inkscape-font-specification:'Impact, Normal';font-variant-ligatures:normal;font-variant-caps:normal;font-variant-numeric:normal;font-variant-east-asian:normal;fill:#d45500;stroke-width:0.264583"
           id="path1781" />
        <path
           d="M -139.76101,81.856528 V 87.4479 q 0,0.950843 -0.062,1.338415 -0.062,0.382405 -0.3669,0.790647 -0.30489,0.403075 -0.80615,0.614948 -0.49609,0.206705 -1.17305,0.206705 -0.7493,0 -1.32291,-0.248046 -0.57361,-0.248046 -0.85783,-0.645953 -0.28422,-0.397908 -0.33589,-0.837156 -0.0517,-0.444416 -0.0517,-1.860346 v -4.950586 h 2.17557 v 6.273499 q 0,0.547768 0.0568,0.702797 0.062,0.149861 0.24287,0.149861 0.20671,0 0.26355,-0.165364 0.062,-0.170532 0.062,-0.795814 v -6.164979 z"
           style="font-style:normal;font-variant:normal;font-weight:normal;font-stretch:normal;font-size:10.5833px;font-family:Impact;-inkscape-font-specification:'Impact, Normal';font-variant-ligatures:normal;font-variant-caps:normal;font-variant-numeric:normal;font-variant-east-asian:normal;fill:#d45500;stroke-width:0.264583"
           id="path1783" />
        <path
           d="m -138.91869,81.856528 h 2.1704 q 1.02836,0 1.55546,0.160196 0.53226,0.160197 0.85782,0.651121 0.32556,0.485757 0.32556,1.570959 0,0.733803 -0.23254,1.02319 -0.22737,0.289387 -0.90433,0.444416 0.75447,0.170532 1.02319,0.568439 0.26871,0.392739 0.26871,1.209224 v 0.775144 q 0,0.847491 -0.19637,1.255734 -0.1912,0.408242 -0.61494,0.558103 -0.42375,0.149862 -1.73633,0.149862 h -2.51663 z m 2.17557,1.431433 v 1.860345 q 0.13953,-0.0052 0.21704,-0.0052 0.32039,0 0.40824,-0.155029 0.0879,-0.160197 0.0879,-0.904335 0,-0.39274 -0.0723,-0.547768 -0.0724,-0.160197 -0.19121,-0.201538 -0.11368,-0.04134 -0.44958,-0.04651 z m 0,3.162587 v 2.340935 q 0.45992,-0.0155 0.58394,-0.144694 0.12919,-0.12919 0.12919,-0.635618 V 87.23086 q 0,-0.537433 -0.11369,-0.651121 -0.11368,-0.113688 -0.59944,-0.129191 z"
           style="font-style:normal;font-variant:normal;font-weight:normal;font-stretch:normal;font-size:10.5833px;font-family:Impact;-inkscape-font-specification:'Impact, Normal';font-variant-ligatures:normal;font-variant-caps:normal;font-variant-numeric:normal;font-variant-east-asian:normal;fill:#d45500;stroke-width:0.264583"
           id="path1785" />
        <path
           d="m -133.06894,81.856528 h 3.62768 v 1.674311 h -1.45211 V 85.1173 h 1.35909 v 1.591629 h -1.35909 v 1.839676 h 1.5968 v 1.674311 h -3.77237 z"
           style="font-style:normal;font-variant:normal;font-weight:normal;font-stretch:normal;font-size:10.5833px;font-family:Impact;-inkscape-font-specification:'Impact, Normal';font-variant-ligatures:normal;font-variant-caps:normal;font-variant-numeric:normal;font-variant-east-asian:normal;fill:#d45500;stroke-width:0.264583"
           id="path1787" />
      </g>
      <g
         id="g1709"
         transform="matrix(1.3315497,0,0,1.3315497,-56.662159,31.715349)">
        <path
           d="m -25.803635,-41.363883 c -0.73075,0 -1.64428,0.365307 -2.7404,1.096057 -1.09613,0.73075 -2.3063,2.306235 -3.63079,4.726844 -0.22836,0.411046 -0.59366,1.11912 -1.09606,2.123901 -0.50239,0.959109 -1.16486,2.306083 -1.98696,4.041614 -0.77642,1.735531 -1.68943,3.882293 -2.73988,6.439917 -1.05045,2.557624 -2.26115,5.640454 -3.6313,9.248531 -1.05045,1.370157 -1.96398,2.512194 -2.7404,3.425631 -0.73075,0.8677655 -1.25591,1.4610675 -1.57562,1.7807705 -0.0768,0.07675 -0.13559,0.164599 -0.18655,0.256832 -0.81503,0.848524 -1.58236,1.61698 -2.28513,2.278414 -0.77642,0.685078 -1.55264,1.324494 -2.32906,1.918229 -0.77642,0.548062 -1.57569,1.095765 -2.39778,1.643827 -0.8221,0.50239 -1.71257,1.027552 -2.67168,1.57561497 l 6.85075,-15.48277647 c 0.0457,-0.09134 0.0913,-0.205083 0.13694,-0.342099 0.0457,-0.137015 0.0687,-0.274328 0.0687,-0.411344 0,-0.319703 -0.29717,-0.639411 -0.8909,-0.959115 -0.13702,-0.09134 -0.50232,-0.205599 -1.09606,-0.342614 -0.54806,-0.137016 -1.25613,-0.205156 -2.1239,-0.205156 -0.77642,0 -1.66689,0.0912 -2.67167,0.273885 -1.00478,0.182688 -2.1007,0.547995 -3.28817,1.096057 -1.1418,0.502391 -2.35249,1.233006 -3.63131,2.192115 -1.27881,0.959109 -2.58018,2.192344 -3.90467,3.699516 -1.4615,1.6898595 -2.58048,3.4026575 -3.3569,5.1381875 -0.77642,1.735531 -1.16478,3.334073 -1.16478,4.795573 0,1.37015597 0.41142,2.580334 1.23351,3.630787 0.77642,1.00478 1.941,1.507402 3.49385,1.507402 1.32448,0 2.58026,-0.319709 3.76772,-0.959116 1.18747,-0.685078 2.26085,-1.484349 3.21996,-2.39778603 l -0.54828,1.09605703 -3.76773,2.397785 c -2.00956,1.324486 -3.72236,2.717575 -5.13819,4.179076 -1.4615,1.461497 -2.64914,2.9001865 -3.56257,4.3160145 -0.91344,1.415828 -1.5754,2.785859 -1.98644,4.110342 -0.45672,1.324486 -0.68523,2.489062 -0.68523,3.493844 0,1.233141 0.3197,2.329061 0.95911,3.288173 0.59373,1.004779 1.55286,1.5074 2.87734,1.5074 0.91344,0 1.75831,-0.319709 2.53473,-0.959115 0.77642,-0.639405 1.4845,-1.438677 2.1239,-2.397786 0.68508,-0.913437 1.30144,-1.918161 1.8495,-3.014287 l 1.5074,-3.014287 c 0.77643,-1.598514 1.59824,-3.40251 2.466,-5.41207 0.86777,-1.9638905 1.82689,-4.1793105 2.87735,-6.6455895 1.68986,-0.913438 3.1516,-1.758307 4.38474,-2.53472903 1.27882,-0.776422 2.44339,-1.530094 3.49385,-2.26084397 1.05045,-0.776422 2.03263,-1.575693 2.94607,-2.397787 0.86472,-0.778249 1.7716,-1.662416 2.71818,-2.645316 -0.26153,0.883441 -0.48146,1.788031 -0.65784,2.714046 -0.13702,0.959109 -0.20567,1.963833 -0.20567,3.01428597 0,0.548062 0.0687,1.096282 0.20567,1.644344 0.13702,0.54806203 0.34247,1.05016603 0.6165,1.50688503 0.27403,0.411047 0.63934,0.753814 1.09606,1.027843 0.45672,0.319704 1.02799,0.479557 1.71307,0.479557 0.73075,0 1.50696,-0.251568 2.32906,-0.753958 0.82209,-0.50239 1.64442,-1.11875 2.46651,-1.849499 0.86777,-0.77642203 1.71264,-1.62129203 2.53473,-2.534729 0.62375,-0.656582 1.21507,-1.297131 1.79162,-1.930115 -0.0174,0.260285 -0.0279,0.515938 -0.0279,0.765328 0,0.776422 0.11426,1.53009397 0.34262,2.26084397 0.18269,0.73075 0.47985,1.39322503 0.8909,1.98695903 0.41105,0.593734 0.93621,1.073296 1.57562,1.438672 0.68507,0.365374 1.48434,0.54777 2.39778,0.54777 1.59852,0 3.10535,-0.456504 4.52117,-1.369942 1.41583,-0.959109 2.69466,-2.05554803 3.83646,-3.28868803 0.54806,0.182687 1.21054,0.274401 1.98696,0.274401 1.7812,0 3.4484,-0.61687597 5.00125,-1.85001597 1.59851,-1.23314 3.1283902,-2.64877 4.5898902,-4.247286 0.0751,-0.07507 0.13306,-0.160231 0.18346,-0.250114 l 0.45785,-0.503328 c -0.63941,1.644187 -1.16509,3.128474 -1.57613,4.452958 -0.36538,1.278813 -0.54777,2.37473397 -0.54777,3.28817097 0,1.00478103 0.25105,1.87270903 0.75344,2.60345903 0.50239,0.685079 1.37032,1.027328 2.60346,1.027328 1.4615,0 3.01444,-0.661958 4.65863,-1.986443 1.68986,-1.37015603 3.35654,-3.037354 5.00073,-5.001245 -0.0913,0.411048 -0.13695,0.799413 -0.13695,1.164787 v 1.02732797 c 0,1.187468 0.25106,2.26084903 0.75345,3.21995803 0.54806,0.95911 1.6445,1.438672 3.28868,1.438672 2.0552398,0 3.9048298,-0.708073 5.5490198,-2.123901 1.64419,-1.46150003 3.15153,-3.333635 4.52169,-5.617229 0.36537,0.639406 0.89053,1.14151 1.57561,1.506885 0.68508,0.365375 1.41569,0.548287 2.19212,0.548287 1.14179,0 2.35197,-0.410906 3.63078,-1.233 1.32448,-0.867765 2.62637,-2.101 3.90519,-3.699515 0.0913,-0.09134 0.15999,-0.228657 0.20567,-0.411345 0.0457,-0.182687 0.0682,-0.342541 0.0682,-0.479557 0,-0.274031 -0.11425,-0.548141 -0.34261,-0.822172 -0.22836,-0.319703 -0.54807,-0.479557 -0.95912,-0.479557 -0.18269,0 -0.36508,0.04611 -0.54777,0.137459 -0.18269,0.04567 -0.43425,0.251125 -0.75396,0.6165 -1.18747,1.461499 -2.16913,2.443166 -2.94555,2.945557 -0.73075,0.50239 -1.48442,0.753959 -2.26084,0.753959 -1.05046,0 -1.57562,-0.525679 -1.57562,-1.576132 0,-0.365375 0.0456,-0.753223 0.13695,-1.16427 0.0913,-0.456718 0.2056,-0.936281 0.34261,-1.438671 l 1.02785,-2.1239025 c 0.27403,-0.548062 0.54762,-1.118823 0.82165,-1.712557 0.27403,-0.593734 0.5256,-1.141953 0.75396,-1.644344 0.22836,-0.502391 0.41075,-0.936355 0.54777,-1.301729 0.18269,-0.365375 0.27388,-0.616427 0.27388,-0.753443 0,-0.365375 -0.11374,-0.685083 -0.3421,-0.959115 -0.18268,-0.319702 -0.52545,-0.479557 -1.02784,-0.479557 -0.45672,0 -0.89068,0.27411 -1.30173,0.822172 -0.41105,0.639406 -0.93621,1.598532 -1.57561,2.877344 -0.59374,1.278813 -1.1189,2.648844 -1.57562,4.1103445 -0.6394,1.278812 -1.34748,2.580704 -2.1239,3.905188 -0.77642,1.278812 -1.62129,2.465931 -2.53473,3.562056 -0.86776,1.050453 -1.78129,1.91838097 -2.7404,2.60345897 -0.91343,0.685078 -1.8725598,1.02732703 -2.8773398,1.02732703 -0.59374,0 -1.00464,-0.182395 -1.233,-0.54777003 -0.18269,-0.365375 -0.27389,-0.867996 -0.27389,-1.507401 0,-1.18746897 0.22851,-2.55749997 0.68523,-4.11034397 0.50239,-1.552843 1.05009,-3.060188 1.64383,-4.521688 v 0.06873 c 0.22836,-0.319703 0.52553,-0.7992665 0.8908998,-1.4386725 0.41105,-0.639407 0.7989,-1.301364 1.16427,-1.986442 0.41105,-0.730749 0.75381,-1.416282 1.02785,-2.055689 0.3197,-0.639406 0.47955,-1.141509 0.47955,-1.506884 0,-0.319703 -0.13731,-0.616871 -0.41134,-0.890902 -0.22836,-0.274031 -0.54807,-0.410828 -0.95911,-0.410828 -0.41105,0 -0.73076,0.114256 -0.95912,0.342615 -0.22836,0.182687 -0.41075,0.365083 -0.5477698,0.54777 -0.27403,0.365375 -0.68494,1.096506 -1.233,2.192631 -0.54806,1.096125 -1.14188,2.3975 -1.78129,3.904672 v -0.06821 c -0.86776,1.3244845 -1.82689,2.6945165 -2.87734,4.1103435 -1.05045,1.415828 -2.12383,2.717203 -3.21996,3.904671 -1.09612,1.141797 -2.1695,2.10092297 -3.21996,2.87734397 -1.05045,0.776422 -2.00958,1.16478703 -2.87734,1.16478703 -0.41105,0 -0.6165,-0.29665 -0.6165,-0.89038503 0,-0.593734 0.11425,-1.324866 0.34261,-2.19263097 0.22836,-0.867765 0.52502,-1.803833 0.89039,-2.808614 0.41105,-1.050453 0.84501,-2.123834 1.30173,-3.219958 0.45672,-1.096125 0.91374,-2.123907 1.37046,-3.0830165 l 1.30121,-3.014287 c 0.22836,-0.593737 0.45687,-1.14144 0.68523,-1.64383 0.27403,-0.502391 0.43389,-0.936355 0.47956,-1.30173 0.0457,-0.411046 -0.0686,-0.730755 -0.34261,-0.959114 -0.27403,-0.274031 -0.59374,-0.411345 -0.95912,-0.411345 -0.54806,0 -1.00456,0.319709 -1.36994,0.959115 -0.3197,0.548062 -0.66247,1.119339 -1.02784,1.713074 -0.36538,0.548062 -0.82188,1.164422 -1.36995,1.849499 -0.50239,0.639407 -1.11875,1.393079 -1.8495,2.260844 -0.68507,0.822094 -1.553,1.8037605 -2.60345,2.9455575 -0.0505,0.05045 -0.0932,0.116507 -0.12971,0.19482 -1.5268902,1.725859 -2.8863202,3.011412 -4.0741702,3.847311 -1.18747,0.822093 -2.30645,1.232999 -3.3569,1.232999 h -0.20516 c 0.95911,-1.461499 1.78092,-3.036984 2.466,-4.726843 0.73075,-1.689859 1.09606,-3.4938545 1.09606,-5.4120735 0,-0.50239 -0.0456,-1.05061 -0.13694,-1.644344 -0.0913,-0.639406 -0.27374,-1.233224 -0.54778,-1.781287 -0.22836,-0.548062 -0.57112,-1.004567 -1.02784,-1.369942 -0.45672,-0.365375 -1.05053,-0.548287 -1.78128,-0.548287 -1.05046,0 -1.98653,0.388365 -2.80862,1.164787 -0.82209,0.73075 -1.50711,1.644276 -2.05517,2.740401 -0.54806,1.096125 -0.95949,2.237646 -1.23352,3.425114 -0.27403,1.187469 -0.41083,2.2152515 -0.41083,3.0830165 0,2.69464 0.73062,4.727146 2.19212,6.097302 -0.77642,0.73075 -1.71249,1.48442297 -2.80862,2.26084397 -1.05045,0.73075 -2.10077,1.09605703 -3.15122,1.09605703 -0.86777,0 -1.50719,-0.36530703 -1.91823,-1.09605703 -0.41105,-0.730749 -0.6165,-1.55307897 -0.6165,-2.46651597 0,-1.004781 0.15985,-2.100702 0.47955,-3.288171 0.36538,-1.187468 0.89054,-2.375105 1.57562,-3.562573 0.68508,-1.2331415 1.50689,-2.3977195 2.466,-3.4938445 0.95911,-1.141796 2.05555,-2.123463 3.28869,-2.945557 0.41104,-0.319703 0.61649,-0.708068 0.61649,-1.164787 0,-0.319703 -0.13731,-0.61687 -0.41134,-0.890901 -0.27403,-0.274032 -0.59374,-0.410828 -0.95911,-0.410828 -0.0913,0 -0.22814,0.0456 -0.41083,0.136942 -0.13702,0.04567 -0.29687,0.114329 -0.47956,0.205673 -1.4615,0.959109 -2.74033,2.078088 -3.83646,3.356901 -1.09612,1.278813 -2.00965,2.625786 -2.7404,4.041614 -0.32924,0.6003885 -0.61903,1.2010525 -0.87436,1.8014405 -0.0454,0.03832 -0.0914,0.07227 -0.13591,0.116789 -0.36538,0.365375 -0.7768,0.799339 -1.23352,1.301729 -0.45672,0.502391 -0.93628,1.027553 -1.43867,1.575615 -0.68508,0.776422 -1.39263,1.575693 -2.12338,2.397786 -0.73075,0.776422 -1.43883,1.507553 -2.12391,2.192631 -0.68507,0.63940597 -1.32449,1.16456797 -1.91823,1.57561397 -0.54806,0.411047 -0.98202,0.61650003 -1.30172,0.61650003 -0.54807,0 -0.89032,-0.18291203 -1.02733,-0.54828703 -0.0913,-0.411046 -0.13694,-0.890609 -0.13694,-1.438671 0,-0.82209397 0.0912,-1.71256297 0.27388,-2.67167197 0.22836,-1.004781 0.47941,-2.032563 0.75344,-3.083016 0.31971,-1.050452 0.66247,-2.055177 1.02785,-3.014286 0.36537,-1.0047815 0.70762,-1.9177915 1.02732,-2.7398845 1.32449,-1.644187 2.74064,-3.494299 4.24781,-5.549533 1.55284,-2.055234 3.05967,-4.110281 4.52117,-6.165515 1.4615,-2.055234 2.78593,-4.019084 3.9734,-5.89163 1.23314,-1.918219 2.16973,-3.539819 2.80913,-4.864303 0.27403,-0.502391 0.45643,-1.004494 0.54777,-1.506885 0.13702,-0.548062 0.20567,-1.073224 0.20567,-1.575614 0,-0.822094 -0.22851,-1.598824 -0.68523,-2.329574 -0.41104,-0.776422 -1.14166,-1.16427 -2.19211,-1.16427 z m -0.0682,2.671672 c 0.0913,0 0.15948,0.0912 0.20515,0.273885 0.0457,0.137016 0.0687,0.319927 0.0687,0.548287 0,0.228359 -0.0456,0.52501 -0.13694,0.890385 -0.0457,0.319703 -0.15993,0.662469 -0.34261,1.027844 -0.41105,0.822093 -0.95927,1.80376 -1.64435,2.945557 -0.63941,1.096125 -1.39308,2.283761 -2.26084,3.562573 -0.82209,1.278812 -1.73562,2.603245 -2.7404,3.973401 -0.95911,1.370156 -1.94078,2.740188 -2.94556,4.110344 0.86777,-2.146578 1.78129,-4.36148 2.7404,-6.645073 1.00478,-2.283593 2.03205,-4.361698 3.0825,-6.234245 0.95911,-1.689859 1.75838,-2.854438 2.39779,-3.493844 0.68507,-0.639406 1.21075,-0.959114 1.57613,-0.959114 z m 9.09402,22.676135 c 0.18269,0 0.32,0.114256 0.41134,0.342615 0.13702,0.182687 0.22822,0.433739 0.27389,0.753442 0.0457,0.274031 0.0687,0.570683 0.0687,0.890386 0.0457,0.319703 0.0682,0.571272 0.0682,0.753959 0,1.461499 -0.34225,2.991385 -1.02733,4.5899015 -0.68508,1.598515 -1.48435,3.059744 -2.39779,4.384228 -0.50239,-0.50239 -0.84515,-1.164348 -1.02784,-1.986442 -0.13702,-0.822093 -0.20567,-1.484568 -0.20567,-1.986959 0,-0.639406 0.0917,-1.393078 0.2744,-2.2608445 0.18269,-0.913437 0.43374,-1.758307 0.75344,-2.534729 0.36538,-0.822093 0.77628,-1.507109 1.233,-2.055172 0.50239,-0.593734 1.02755,-0.890385 1.57562,-0.890385 z m -36.09186,0.136943 h 0.82217 c -0.68508,1.4615 -1.50689,3.082583 -2.466,4.863786 -0.95911,1.7812035 -2.00995,3.4714595 -3.15174,5.0699755 -1.09613,1.598515 -2.26071,3.037203 -3.49385,4.316015 -1.23314,1.23314097 -2.44331,2.07801097 -3.63078,2.53472897 -0.50239,0.13701603 -0.9589,0.20515603 -1.36994,0.20515603 -0.63941,0 -1.14203,-0.20545303 -1.50741,-0.61650003 -0.36537,-0.456719 -0.54828,-1.073078 -0.54828,-1.84949997 0,-1.050453 0.29717,-2.283688 0.8909,-3.699515 0.63941,-1.415828 1.62107,-2.877574 2.94556,-4.384746 1.14179,-1.3701555 2.26077,-2.4660775 3.3569,-3.2881715 1.14179,-0.822093 2.19263,-1.46151 3.15174,-1.91823 1.00478,-0.50239 1.91779,-0.822098 2.73989,-0.959114 0.86776,-0.182688 1.62143,-0.273885 2.26084,-0.273885 z m -8.76897,21.7170205 -1.16427,2.671672 c -0.45672,1.050454 -0.89069,2.0551775 -1.30173,3.0142865 -0.41105,1.004781 -0.84501,1.963907 -1.30173,2.877344 -1.05045,2.237919 -2.03264,4.064973 -2.94607,5.480801 -0.95911,1.4615 -1.84958,2.192115 -2.67168,2.192115 -0.45671,0 -0.75337,-0.22851 -0.89038,-0.685228 -0.18269,-0.456721 -0.2744,-0.936284 -0.2744,-1.438672 0,-0.776423 0.18291,-1.712492 0.54828,-2.808616 0.31971,-1.050451 0.86793,-2.192491 1.64435,-3.425629 0.77642,-1.187471 1.80369,-2.443247 3.0825,-3.7677295 1.32448,-1.278811 2.94608,-2.534587 4.8643,-3.767728 z"
           style="font-style:normal;font-variant:normal;font-weight:normal;font-stretch:normal;font-size:68.5078px;line-height:1.25;font-family:'Learning Curve';-inkscape-font-specification:'Learning Curve, Normal';font-variant-ligatures:normal;font-variant-caps:normal;font-variant-numeric:normal;font-variant-east-asian:normal;fill:#02b800;fill-opacity:1;stroke:#02b800;stroke-width:1.79917;stroke-linecap:round;stroke-linejoin:round;stroke-miterlimit:4;stroke-dasharray:none;stroke-opacity:1;marker-end:url(#marker1175);filter:url(#filter1671)"
           id="path836" />
        <path
           sodipodi:nodetypes="sssssssssssccscssccsccccccccssssscsscssssscssccccssssssccccccccccssccsscssscccssscscccsccscsccccssssccccsssscccsscsssssssscssccccsssssscsccssssccsssscssccsccsscsccssssssscsssscssscssscsssssssssccsssscsssccssssccscsssssssscssssscccsssssccssscsssssssscccsccsssssssssssssscccscsccccssssscccsscsccsssccccssssscsccssssscccsscsccssssssccsscccsssccssccccscccccssscssssscsssscsssscscssscscccsscsssssscssccccsccccccccccccccccccccccccccsssccccccsssscsccscccccccccscssscssccssccsccssccsscccccsssssccssscssccssssccc"
           id="path862"
           d="m -25.803727,-41.363888 c -0.7307,0 -1.6443,0.3653 -2.7404,1.096 l -3e-4,2e-4 c -1.096,0.7308 -2.3061,2.3063 -3.63047,4.7267 l -1.1e-4,2e-4 c -0.22837,0.4111 -0.59364,1.1191 -1.09595,2.1237 l -1.2e-4,2e-4 c -0.50238,0.9591 -1.16481,2.306 -1.98684,4.0414 l -9e-5,2e-4 c -0.7764,1.7355 -1.68938,3.8822 -2.73979,6.4397 l -1.3e-4,3e-4 c -1.05042,2.55758 -2.26108,5.64031 -3.63118,9.24824 -8e-5,1.1e-4 -1.7e-4,2.2e-4 -2.5e-4,3.3e-4 -1.05035,1.37001 -1.96379,2.511935 -2.74015,3.425298 -1.2e-4,1.41e-4 -2.3e-4,2.82e-4 -3.5e-4,4.24e-4 -0.73057,0.8675385 -1.25561,1.4606985 -1.57526,1.7803485 l -3e-4,3e-4 c -0.0766,0.07668 -0.13536,0.16442 -0.18625,0.25653 -1.4e-4,1.4e-4 -2.7e-4,2.8e-4 -4e-4,4.1e-4 -0.81488,0.84836 -1.58208,1.61668 -2.28474,2.278 -1.2e-4,1.2e-4 -2.5e-4,2.3e-4 -3.8e-4,3.4e-4 -0.77629,0.68495 -1.55238,1.32425 -2.32864,1.91789 -2e-4,9e-5 -3e-4,1.8e-4 -4e-4,2.7e-4 -0.7763,0.54797 -1.5755,1.09559 -2.3974,1.64356 -2e-4,8e-5 -3e-4,1.6e-4 -4e-4,2.5e-4 -0.822,0.50231 -1.7123,1.02739 -2.6713,1.57540997 0,0 1e-4,-2e-4 2e-4,-5e-4 0.0354,-0.08 6.85055,-15.48232047 6.85055,-15.48232047 l 1.8e-4,-3.6e-4 c 0.0456,-0.09128 0.0911,-0.2049 0.13677,-0.34174 l 1.8e-4,-5.4e-4 c 0.0455,-0.13683 0.0686,-0.27397 0.0686,-0.4108 v -6.3e-4 c -3.9e-4,-0.31949 -0.29756,-0.63899 -0.8909,-0.95849 l -5.4e-4,-3.6e-4 c -0.13743,-0.09128 -0.50256,-0.20542 -1.09549,-0.34225 -2e-4,-5e-5 -4e-4,-9e-5 -6e-4,-1.4e-4 -0.548,-0.13692 -1.2559,-0.20502 -2.1233,-0.20502 h -4e-4 c -0.7763,3e-5 -1.6667,0.09123 -2.6713,0.27389 l -5e-4,9e-5 c -1.00459,0.18271 -2.10039,0.54799 -3.28769,1.09596 -2e-4,8e-5 -3e-4,1.7e-4 -5e-4,2.5e-4 -1.1417,0.50238 -2.3522,1.23292 -3.6308,2.19187 l -3e-4,2.3e-4 c -1.2787,0.95908 -2.58,2.19223 -3.9044,3.699284 l -3e-4,4.13e-4 c -1.4613,1.6897235 -2.5802,3.4023835 -3.3566,5.1377735 l -1e-4,4.2e-4 c -0.7763,1.73537 -1.1646,3.33377 -1.1646,4.79515 v 3.4e-4 c 0,1.36997997 0.4115,2.58008 1.2335,3.63048 l 4e-4,5e-4 c 0.7764,1.0044 1.9408,1.5069 3.4934,1.5069 h 7e-4 c 1.3242,-1e-4 2.5798,-0.3198 3.767,-0.9591 l 3e-4,-2e-4 c 1.1874,-0.6851 2.2607,-1.4843 3.2197,-2.39760003 0,0 -10e-5,10e-5 -3e-4,5e-4 -0.011,0.0221 -0.548,1.09550003 -0.548,1.09550003 0,0 -1e-4,10e-5 -4e-4,3e-4 -0.0387,0.0246 -3.7673,2.3975 -3.7673,2.3975 l -5e-4,3e-4 c -2.0093,1.3244 -3.722,2.7174 -5.1377,4.1788 l -4e-4,3e-4 c -1.4613,1.4614 -2.6488,2.8999995 -3.5622,4.3156995 l -2e-4,3e-4 c -0.9133,1.4158 -1.5752,2.7857 -1.9862,4.11 l -1e-4,4e-4 c -0.4567,1.3243 -0.6851,2.4888 -0.6851,3.4935 v 6e-4 c 1e-4,1.2329 0.3198,2.3286 0.9591,3.2876 l 3e-4,5e-4 c 0.5937,1.0044 1.5528,1.5069 2.877,1.5069 h 5e-4 c 0.9132,-10e-5 1.758,-0.3199 2.5342,-0.9592 l 4e-4,-3e-4 c 0.7763,-0.6393 1.4842,-1.4385 2.1235,-2.3974 l 4e-4,-5e-4 c 0.6849,-0.9133 1.3012,-1.9179 1.8491,-3.0138 l 2e-4,-4e-4 c 0.0155,-0.0309 1.5072,-3.0139 1.5072,-3.0139 l 2e-4,-4e-4 c 0.7764,-1.5984 1.5982,-3.4023 2.4658,-5.4117 l 3e-4,-5e-4 c 0.8677,-1.9636995 1.8267,-4.1789995 2.8771,-6.6450995 l 4e-4,-2e-4 c 1.68969,-0.9133 3.15129,-1.7581 4.38429,-2.53450003 l 4e-4,-2e-4 c 1.2786,-0.7763 2.4431,-1.53 3.49348,-2.26063997 1.7e-4,-1.3e-4 3.4e-4,-2.6e-4 5.1e-4,-3.8e-4 1.05026,-0.77631 2.03228,-1.57545 2.94556,-2.39741 1.5e-4,-1.3e-4 2.9e-4,-2.6e-4 4.3e-4,-3.8e-4 0.86459,-0.77816 1.77133,-1.6622 2.71776,-2.64494 -5e-5,1.5e-4 -9e-5,2.9e-4 -1.3e-4,4.3e-4 -0.26148,0.88331 -0.48136,1.78775 -0.65772,2.71362 l -6e-5,4.7e-4 c -0.13697,0.95896 -0.20561,1.96353 -0.20561,3.01382997 v 5e-4 c 5e-5,0.5479 0.0687,1.0959 0.20567,1.6438 5e-5,2e-4 9e-5,4e-4 1.4e-4,6e-4 0.13701,0.54780003 0.34242,1.04970003 0.61636,1.50630003 9e-5,1e-4 1.8e-4,3e-4 2.7e-4,4e-4 0.274,0.4109 0.63922,0.7535 1.09579,1.0275 l 4.5e-4,3e-4 c 0.45664,0.3195 1.02777,0.4792 1.71262,0.4792 h 3.6e-4 c 0.73065,-10e-5 1.50674,-0.2516 2.3287,-0.7539 1.4e-4,-1e-4 2.7e-4,-2e-4 4e-4,-3e-4 0.82196,-0.5023 1.64416,-1.1186 2.46612,-1.8492 1.4e-4,-2e-4 2.8e-4,-3e-4 4.2e-4,-4e-4 0.86762,-0.77630003 1.71235,-1.62110003 2.53431,-2.5344 l 3e-4,-3e-4 c 0.62364,-0.65646 1.21485,-1.29691 1.79132,-1.92979 l -3e-5,5.1e-4 c -0.0174,0.26011 -0.0279,0.51559 -0.0279,0.76482 v 3.8e-4 c 4e-5,0.77629 0.11429,1.52987997 0.34261,2.26047997 l 9e-5,3e-4 c 0.1827,0.7306 0.47984,1.39300003 0.89082,1.98660003 l 2e-4,3e-4 c 0.41101,0.5936 0.93613,1.0731 1.57543,1.4384 l 3e-4,2e-4 c 0.685,0.3652 1.4842,0.5476 2.3975,0.5476 h 4e-4 c 1.5983,-1e-4 3.105,-0.4566 4.5207,-1.37 l 4e-4,-2e-4 c 1.4157,-0.959 2.6944,-2.05540003 3.8361,-3.28840003 l 5e-4,10e-5 c 0.548,0.1826 1.2103,0.2743 1.9865,0.2743 h 4e-4 c 1.781,-1e-4 3.4481,-0.61699997 5.0008,-1.85005997 l 4e-4,-3e-4 c 1.5984,-1.23307 3.1280999,-2.6486 4.5894999,-4.24699 l 3e-4,-2.9e-4 c 0.0749,-0.075 0.1328,-0.16005 0.1832,-0.24982 l 2e-4,-2.4e-4 c 0.009,-0.01016 0.4576,-0.50309 0.4576,-0.50309 l -2e-4,4e-4 c -0.6393,1.64403 -1.1649,3.12818 -1.5759,4.45256 l -2e-4,6.2e-4 c -0.3653,1.27855 -0.5476,2.37430997 -0.5476,3.28750997 v 5e-4 c 10e-5,1.00460003 0.2511,1.87240003 0.7534,2.60300003 l 3e-4,3e-4 c 0.5024,0.6849 1.3703,1.027 2.6032,1.027 h 4e-4 c 1.4614,-10e-5 3.0142,-0.662 4.65819995,-1.9864 l 4e-4,-3e-4 c 1.68980005,-1.37010003 3.35630005,-3.0372 5.00040005,-5.00096 l -10e-5,4e-4 c -0.0913,0.4109 -0.1369,0.79913 -0.1369,1.16439 v 4.9e-4 1.02687997 5e-4 c 10e-5,1.1873 0.2512,2.26050003 0.7535,3.21940003 l 2e-4,5e-4 c 0.5482,0.9588 1.6445,1.4382 3.2884,1.4382 h 6e-4 c 2.0550001,-1e-4 3.9044001,-0.7082 5.5485001,-2.1239 l 4e-4,-4e-4 c 1.644,-1.46140003 3.1512,-3.33344 4.5213,-5.61685 l 10e-5,3.2e-4 c 0.3654,0.63925 0.8905,1.14125 1.5755,1.50657 l 3e-4,1.8e-4 c 0.685,0.36525 1.4155,0.54811 2.1918,0.54811 h 5e-4 c 1.1417,-1.4e-4 2.3517,-0.41104 3.6303,-1.233 l 3e-4,-2.1e-4 c 1.3244,-0.86776 2.6261,-2.10092 3.9049,-3.69931 l 3e-4,-3.6e-4 c 0.0911,-0.09134 0.1597,-0.22853 0.2053,-0.41098 l 10e-5,-3.6e-4 c 0.0457,-0.18254 0.0681,-0.34227 0.0681,-0.4792 v -5.4e-4 c -10e-5,-0.27385 -0.1144,-0.54778 -0.3426,-0.82163 l -2e-4,-3.1e-4 c -0.2284,-0.3195 -0.548,-0.47925 -0.9589,-0.47925 h -4e-4 c -0.1825,6e-5 -0.3648,0.04617 -0.5474,0.13746 l -3e-4,9e-5 c -0.1827,0.04585 -0.4341,0.25127 -0.7536,0.61641 l -3e-4,3.6e-4 c -1.1874,1.4613 -2.1689,2.44285 -2.9453,2.9452 l -3e-4,2.4e-4 c -0.7307,0.50223 -1.4842,0.75372 -2.2605,0.75372 h -5e-4 c -1.0502,-1.8e-4 -1.5751,-0.52585 -1.5751,-1.57614 v -3.5e-4 c 0,-0.36527 0.0456,-0.753 0.1369,-1.16392 l 10e-5,-4.4e-4 c 0.0913,-0.45659 0.2055,-0.936 0.3425,-1.43823 l 1e-4,-2.5e-4 c 0.0106,-0.02178 1.0278,-2.1236495 1.0278,-2.1236495 l 2e-4,-5.35e-4 c 0.274,-0.547899 0.5475,-1.118481 0.8214,-1.712026 l 3e-4,-5.8e-4 c 0.2739,-0.59351 0.5254,-1.14153 0.7537,-1.64376 l 2e-4,-4.9e-4 c 0.2283,-0.50218 0.4106,-0.93598 0.5475,-1.30124 l 2e-4,-3.6e-4 c 0.1826,-0.36518 0.2737,-0.61611 0.2737,-0.75308 v -3.6e-4 c 0,-0.36523 -0.1138,-0.68481 -0.3421,-0.95876 l -10e-5,-3.1e-4 c -0.1828,-0.31949 -0.5255,-0.47924 -1.0277,-0.47924 h -5e-4 c -0.4565,1.7e-4 -0.8903,0.27428 -1.3012,0.82217 l -2e-4,3.1e-4 c -0.4111,0.63941 -0.9362,1.59843 -1.5755,2.87703 l -10e-5,3.1e-4 c -0.5937,1.27873 -1.1188,2.648655 -1.5755,4.1100405 l -1e-4,3.1e-4 c -0.6394,1.27871 -1.3474,2.5805 -2.1238,3.90487 l -2e-4,3.2e-4 c -0.7763,1.27869 -1.6211,2.4657 -2.5345,3.56174 l -4e-4,5.1e-4 c -0.8677,1.05023 -1.781,1.91794997 -2.74,2.60294997 l -4e-4,3e-4 c -0.9134,0.6849 -1.8723001,1.02700003 -2.8769001,1.02700003 h -6e-4 c -0.5934,-10e-5 -1.0042,-0.1825 -1.2324,-0.54770003 l -2e-4,-4e-4 c -0.1826,-0.3653 -0.2737,-0.8678 -0.2737,-1.507 v -6e-4 c 0,-1.18735997 0.2286,-2.55719997 0.6852,-4.10978997 l 1e-4,-3.8e-4 c 0.5024,-1.55271 1.05,-3.05993 1.6437,-4.52131 v 5.2e-4 0.06821 l 2e-4,-3.1e-4 c 0.2284,-0.3197 0.5255,-0.7991605 0.8907001,-1.4383595 l 2e-4,-3.12e-4 c 0.411,-0.63931 0.7988,-1.301164 1.1641,-1.986129 l 2e-4,-3.6e-4 c 0.411,-0.73061 0.7537,-1.41603 1.0276,-2.05533 l 2e-4,-3.1e-4 c 0.3196,-0.63926 0.4794,-1.14126 0.4794,-1.50657 v -6.3e-4 c -2e-4,-0.31946 -0.1375,-0.61642 -0.4113,-0.89028 l -3e-4,-2.6e-4 c -0.2283,-0.27386 -0.5479,-0.41056 -0.9589,-0.41056 h -4e-4 c -0.4108,7e-5 -0.7304,0.11433 -0.9587,0.34261 l -4e-4,3.6e-4 c -0.2282,0.18257 -0.4104,0.36484 -0.5473001,0.54741 l -3e-4,3.6e-4 c -0.274,0.36549 -0.6849,1.0965 -1.2327,2.19227 l -3e-4,5.4e-4 c -0.548,1.09601 -1.1417,2.397207 -1.781,3.904134 v -5.11e-4 -0.0677 l -2e-4,3.23e-4 c -0.8678,1.3243835 -1.8268,2.6943135 -2.8772,4.1100235 l -2e-4,3.4e-4 c -1.0504,1.4157 -2.1237,2.71696 -3.21970005,3.90433 l -3e-4,2.8e-4 c -1.096,1.14167 -2.16929995,2.10068997 -3.21969995,2.87708997 l -5e-4,4e-4 c -1.0503,0.7761 -2.0092,1.16440003 -2.8768,1.16440003 h -4e-4 c -0.4108,-2e-4 -0.6161,-0.2969 -0.6161,-0.89040003 v -6e-4 c 0,-0.5936 0.1143,-1.3246 0.3426,-2.19205997 l 10e-5,-4.2e-4 c 0.2283,-0.86765 0.5249,-1.80357 0.8903,-2.80819 l 2e-4,-5.1e-4 c 0.411,-1.05029 0.8448,-2.1235 1.3015,-3.21945 l 2e-4,-5.3e-4 c 0.4567,-1.09593 0.9136,-2.12353 1.3703,-3.0824855 l 1e-4,-3.66e-4 c 0.0134,-0.03091 1.30109995,-3.013919 1.30109995,-3.013919 l 2e-4,-5.8e-4 c 0.2283,-0.59352 0.4567,-1.14103 0.685,-1.64325 l 3e-4,-4.9e-4 c 0.2738,-0.50219 0.4336,-0.93599 0.4793,-1.30124 v -4e-4 c 0.0456,-0.41086 -0.0687,-0.73043 -0.3427,-0.95872 l -2e-4,-2.6e-4 c -0.274,-0.27386 -0.5936,-0.41108 -0.9589,-0.41108 h -5e-4 c -0.54779995,2.1e-4 -1.00419995,0.31992 -1.36939995,0.95911 l -3e-4,5.4e-4 c -0.3196,0.5479 -0.6623,1.119 -1.0276,1.71254 l -3e-4,5.3e-4 c -0.3653,0.54793 -0.8217,1.16411 -1.3696,1.84897 l -2e-4,3.1e-4 c -0.5024,0.63934 -1.1187,1.39291 -1.8493,2.260531 l -3e-4,4.01e-4 c -0.6851,0.822013 -1.5529,1.8035485 -2.6032,2.9451585 l -4e-4,3.9e-4 c -0.0502,0.0504 -0.0928,0.11632 -0.1293,0.19443 l -3e-4,4.2e-4 c -1.5267999,1.72565 -2.8860999,3.01106 -4.0737999,3.84689 l -3e-4,2e-4 c -1.1874,0.82196 -2.3063,1.2328 -3.3566,1.2328 h -4e-4 -0.2048 l 2e-4,-3.6e-4 c 0.959,-1.4614 1.7808,-3.03676 2.4658,-4.72649 l 2e-4,-4.1e-4 c 0.7306,-1.68974 1.0959,-3.4935955 1.0959,-5.4116605 v -4.9e-4 c -10e-5,-0.50225 -0.0457,-1.05031 -0.137,-1.64385 l -10e-5,-6.3e-4 c -0.0913,-0.63916 -0.2737,-1.23277 -0.5477,-1.78066 l -2e-4,-5.3e-4 c -0.2283,-0.54783 -0.571,-1.00415 -1.0276,-1.36941 l -4e-4,-3.6e-4 c -0.4567,-0.36514 -1.0504,-0.54793 -1.7809,-0.54793 h -5e-4 c -1.0502,1.3e-4 -1.9861,0.38849 -2.8081,1.16479 l -4e-4,3.6e-4 c -0.8219,0.73069 -1.5068,1.64409 -2.0548,2.74004 -10e-5,1.8e-4 -10e-5,3.6e-4 -2e-4,5.4e-4 -0.548,1.09596 -0.9593,2.2373 -1.2333,3.424574 0,1.93e-4 -10e-5,3.87e-4 -10e-5,5.8e-4 -0.274,1.187226 -0.4107,2.2148165 -0.4107,3.0824365 v 6.6e-4 c 10e-5,2.69431 0.7307,4.7266 2.1921,6.09664 l -4e-4,3.6e-4 c -0.7763,0.73064 -1.7123,1.48422997 -2.8082,2.26052997 -2e-4,1e-4 -4e-4,2e-4 -5e-4,3e-4 -1.0503,0.7305 -2.1005,1.09570003 -3.1507,1.09570003 h -5e-4 c -0.8675,-10e-5 -1.5068,-0.36540003 -1.9178,-1.09600003 l -2e-4,-4e-4 c -0.4109,-0.7307 -0.6163,-1.55286997 -0.6163,-2.46615997 v -4.9e-4 c 10e-5,-1.00465 0.1599,-2.10041 0.4796,-3.28768 0,-1.9e-4 10e-5,-3.9e-4 2e-4,-5.8e-4 0.3653,-1.18728 0.8904,-2.37472 1.5754,-3.56199 l 2e-4,-3.1e-4 c 0.685,-1.2330255 1.5068,-2.3975025 2.4658,-3.4935405 l 2e-4,-2.8e-4 c 0.9591,-1.14167 2.0555,-2.12325 3.2885,-2.94528 l 4e-4,-3.1e-4 c 0.4108,-0.31964 0.6161,-0.7079 0.6161,-1.16447 v -6.3e-4 c -2e-4,-0.31946 -0.1375,-0.61642 -0.4114,-0.89027 l -2e-4,-2.7e-4 c -0.274,-0.27385 -0.5936,-0.41056 -0.9589,-0.41056 h -3e-4 c -0.0914,1.2e-4 -0.228,0.04572 -0.4105,0.13694 -2e-4,6e-5 -4e-4,1.2e-4 -5e-4,1.8e-4 -0.1369,0.04567 -0.2966,0.11427 -0.4791,0.20549 l -3e-4,2.4e-4 c -1.4614,0.95906 -2.7401,2.07796 -3.8361,3.35666 -10e-5,1.1e-4 -2e-4,2.1e-4 -3e-4,3.2e-4 -1.096,1.27872 -2.0094,2.625586 -2.7401,4.041299 -10e-5,9.8e-5 -10e-5,1.95e-4 -2e-4,2.93e-4 -0.32915,0.6002885 -0.61889,1.2008585 -0.87418,1.8011485 -1.2e-4,1e-4 -2.3e-4,2e-4 -3.5e-4,3e-4 -0.0453,0.0382 -0.0911,0.07208 -0.13556,0.11649 l -3.5e-4,3.5e-4 c -0.36529,0.36531 -0.77659,0.79915 -1.23316,1.30138 -8e-5,8e-5 -1.5e-4,1.6e-4 -2.3e-4,2.4e-4 -0.45665,0.50232 -0.93614,1.0274 -1.43845,1.57537 l -1.6e-4,1.9e-4 c -0.68503,0.77636 -1.39253,1.57557 -2.12322,2.3976 l -1.8e-4,1.9e-4 c -0.73068,0.77635 -1.4387,1.50742 -2.12372,2.19244 l -1.7e-4,2e-4 c -0.68501,0.63929997 -1.32437,1.16439997 -1.91806,1.57539997 l -1.3e-4,10e-5 c -0.548,0.411 -0.98192,0.61640003 -1.3016,0.61640003 h -2.7e-4 c -0.5479,0 -0.89006,-0.18300003 -1.02706,-0.54830003 l -4e-5,-2e-4 c -0.0913,-0.411 -0.1369,-0.8905 -0.1369,-1.4384 v -2e-4 c 2e-5,-0.82207997 0.0912,-1.71248997 0.27389,-2.67151997 10e-6,-8e-5 3e-5,-1.6e-4 5e-5,-2.4e-4 0.22835,-1.00471 0.47938,-2.03241 0.75339,-3.08277 2e-5,-9e-5 5e-5,-1.7e-4 8e-5,-2.6e-4 0.31968,-1.05036 0.66242,-2.055 1.02776,-3.01403 l 9e-5,-2.4e-4 c 0.36534,-1.0046895 0.70756,-1.9176175 1.02724,-2.7396405 5e-5,-7e-5 1.1e-4,-1.4e-4 1.6e-4,-2e-4 1.32444,-1.64414 2.74053,-3.49419 4.24764,-5.54934 7e-5,-8e-5 1.3e-4,-1.6e-4 1.9e-4,-2.5e-4 1.55278,-2.05515 3.05954,-4.11011 4.52098,-6.16531 l 1.8e-4,-2e-4 c 1.46144,-2.0551 2.78584,-4.0189 3.97324,-5.8914 l 10e-5,-2e-4 c 1.2331,-1.9181 2.1696,-3.5397 2.809,-4.8641 l 3e-4,-5e-4 c 0.2739,-0.5022 0.4562,-1.0041 0.5475,-1.5064 l 10e-5,-5e-4 c 0.1369,-0.5479 0.2056,-1.0729 0.2056,-1.5751 v -2e-4 c -10e-5,-0.822 -0.2286,-1.5987 -0.6853,-2.3294 l -2e-4,-3e-4 c -0.4111,-0.7762 -1.1416,-1.1639 -2.1919,-1.1639 z m -0.0682,2.6716 c 0.061,0 0.1064,0.0608 0.137,0.1826 0.0303,2e-4 0.053,0.0306 0.0682,0.0913 0.0304,0.0915 0.0458,0.2135 0.0459,0.3658 0.0151,0.0457 0.0228,0.1065 0.0228,0.1825 0,0.1523 -0.0304,0.3502 -0.0913,0.5938 0,0.0761 -0.0152,0.1749 -0.0457,0.2966 -0.0304,0.2132 -0.1066,0.4419 -0.2284,0.6855 -0.0153,0.1065 -0.0533,0.2207 -0.1142,0.3423 -0.274,0.5482 -0.6395,1.2027 -1.0963,1.964 -0.1371,0.2741 -0.3199,0.6015 -0.5483,0.9821 -0.4262,0.7306 -0.9286,1.5222 -1.5069,2.3746 -0.2132,0.3654 -0.4645,0.7614 -0.7539,1.1878 -0.54797,0.8524 -1.15692,1.7353 -1.82669,2.6486 -0.27411,0.4264 -0.5787,0.868 -0.9137,1.3248 -0.63933,0.9133 -1.2937,1.8266 -1.96347,2.7399 -0.31963,0.4566 -0.64678,0.9131 -0.98164,1.3696 0.57844,-1.4309 1.18739,-2.9073 1.82672,-4.4295 0.28934,-0.7157 0.59393,-1.4542 0.91371,-2.2156 0.66978,-1.5222 1.35454,-2.9074 2.05476,-4.1556 0.335,-0.7614 0.67751,-1.4542 1.02771,-2.0785 0.6393,-1.1264 1.1721,-1.9026 1.5983,-2.3288 0.3198,-0.5634 0.5864,-0.9517 0.7996,-1.165 0.4566,-0.426 0.8069,-0.639 1.0504,-0.639 0.2284,-0.2132 0.4036,-0.3198 0.5254,-0.3198 m 9.0944,22.67618 c 0.1825,1.5e-4 0.3197,0.1144 0.411,0.34262 l 2e-4,3.5e-4 c 0.1369,0.18266 0.228,0.43359 0.2737,0.75309 v 5.3e-4 c 0.0457,0.27388 0.0687,0.57036 0.0687,0.88985 l 10e-5,6.3e-4 c 0.0456,0.3194 0.0681,0.57076 0.0681,0.75333 v 3.6e-4 c -10e-5,1.46139 -0.3423,2.991157 -1.0273,4.5895405 l -2e-4,3.9e-4 c -0.685,1.59837 -1.4843,3.05946 -2.3976,4.38384 l -3e-4,-2.4e-4 c -0.5022,-0.50236 -0.8449,-1.16424 -1.0276,-1.9862 v -4e-4 c -0.137,-0.82191 -0.2056,-1.48425 -0.2056,-1.98656 v -6.2e-4 c 0,-0.63928 0.0917,-1.39274 0.2744,-2.2602245 l 10e-5,-4.46e-4 c 0.1826,-0.913266 0.4337,-1.75799 0.7533,-2.53428 l 2e-4,-4e-4 c 0.3653,-0.82192 0.7762,-1.5068 1.2328,-2.05477 l 3e-4,-2.9e-4 c 0.5023,-0.59355 1.0273,-0.8901 1.5753,-0.8901 v 0 0 m -24.06122,0.0913 h 4e-4 m -12.03058,0.04564 h 0.8217 c 0,1.2e-4 -1e-4,2.4e-4 -1e-4,3.6e-4 -0.6851,1.46141 -1.5068,3.08237 -2.4659,4.863429 0,1.45e-4 -1e-4,2.9e-4 -2e-4,4.35e-4 -0.959,1.7810465 -2.00979,3.4711565 -3.15149,5.0695365 l -3e-4,3.9e-4 c -1.096,1.59836 -2.2605,3.03692 -3.4936,4.31563 l -3e-4,3e-4 c -1.233,1.23299997 -2.4431,2.07769997 -3.6304,2.53439997 l -5e-4,2e-4 c -0.5022,0.13690003 -0.9586,0.20500003 -1.3695,0.20500003 h -6e-4 c -0.6391,-10e-5 -1.1415,-0.20560003 -1.5068,-0.61650003 l -3e-4,-5e-4 c -0.3652,-0.4566 -0.548,-1.0728 -0.548,-1.84901997 v -5.1e-4 c 10e-5,-1.05034 0.2973,-2.2834 0.8909,-3.699 l 2e-4,-3.5e-4 c 0.6394,-1.41572 1.621,-2.87735 2.9454,-4.3844 l 3e-4,-3.3e-4 c 1.1417,-1.3700005 2.2606,-2.4658115 3.3566,-3.2878405 l 3e-4,-2e-4 c 1.1417,-0.822 2.1924,-1.46135 3.1514,-1.91803 2e-4,-8e-5 4e-4,-1.6e-4 5e-4,-2.4e-4 1.0046,-0.50225 1.91749,-0.82188 2.73939,-0.95887 l 4e-4,-9e-5 c 0.8676,-0.18263 1.6212,-0.2738 2.2605,-0.2738 v 0 m -5.84599,14.4780205 c 0,0 -1e-4,1.1e-4 -2e-4,3.2e-4 m -2.9229,7.23904 c -0.012,0.0274 -1.1642,2.6713 -1.1642,2.6713 l -2e-4,5e-4 c -0.4566,1.0503 -0.8905,2.0547995 -1.3015,3.0137995 l -2e-4,5e-4 c -0.411,1.0046 -0.8449,1.9636 -1.3015,2.8768 l -3e-4,6e-4 c -1.0503,2.2377 -2.0324,4.0645 -2.9458,5.4802 l -2e-4,4e-4 c -0.9591,1.4613 -1.8495,2.1918 -2.6715,2.1918 h -4e-4 c -0.4565,-2e-4 -0.753,-0.2287 -0.89,-0.6853 l -10e-5,-4e-4 c -0.1826,-0.4566 -0.2743,-0.936 -0.2743,-1.4382 v -4e-4 c 1e-4,-0.7764 0.183,-1.7123 0.5483,-2.8083 l 2e-4,-5e-4 c 0.3197,-1.0503 0.8679,-2.1921 1.6442,-3.4251 l 2e-4,-3e-4 c 0.7764,-1.1874 1.8036,-2.443 3.0823,-3.7673995 l 3e-4,-3e-4 c 1.3244,-1.2787 2.9459,-2.5344 4.864,-3.7674 l 2e-4,-2e-4 c 0.008,-0.0069 0.4106,-0.3425 0.4106,-0.3425"
           style="font-style:normal;font-variant:normal;font-weight:normal;font-stretch:normal;font-size:68.5078px;line-height:1.25;font-family:'Learning Curve';-inkscape-font-specification:'Learning Curve, Normal';font-variant-ligatures:normal;font-variant-caps:normal;font-variant-numeric:normal;font-variant-east-asian:normal;fill:#56cf55;fill-opacity:1;stroke:#56cf55;stroke-width:1.32292;stroke-linecap:round;stroke-linejoin:round;stroke-miterlimit:4;stroke-dasharray:none;stroke-opacity:1;filter:url(#filter1651)" />
        <path
           id="path864"
           d="m -25.80357,-41.363874 c -0.7308,0 -1.6443,0.3653 -2.7404,1.096 l -6e-4,4e-4 c -1.096,0.7309 -2.30596,2.3063 -3.63022,4.7265 l -2.3e-4,4e-4 c -0.22837,0.4111 -0.5936,1.119 -1.09583,2.1235 l -2.5e-4,4e-4 c -0.50236,0.9591 -1.16475,2.3059 -1.98671,4.0412 l -1.9e-4,4e-4 c -0.77638,1.7355 -1.68933,3.8821 -2.7397,6.4395 l -6e-5,2e-4 c -1.05044,2.5576 -2.26111,5.6403 -3.63124,9.2483 l -1.3e-4,2e-4 c -1.05039,1.3701 -1.96388,2.5121 -2.74027,3.4255 l -1.8e-4,2e-4 c -0.73066,0.8676 -1.25576,1.4609 -1.57543,1.7805 l -1.5e-4,2e-4 c -0.0767,0.0767 -0.13548,0.1645 -0.18641,0.2567 l -1.9e-4,2e-4 c -0.81496,0.8484 -1.58222,1.6168 -2.28494,2.2782 l -1.9e-4,2e-4 c -0.77636,0.685 -1.55251,1.3243 -2.32888,1.918 l -2e-4,2e-4 c -0.7763,0.548 -1.5755,1.0956 -2.3976,1.6436 l -2e-4,2e-4 c -0.822,0.5023 -1.7124,1.0274 -2.6714,1.57549996 l 1e-4,-3e-4 c 0.0177,-0.04 6.8506,-15.48249996 6.8506,-15.48249996 l 9e-5,-2e-4 c 0.0456,-0.0913 0.0912,-0.205 0.13686,-0.3419 l 8e-5,-3e-4 c 0.0456,-0.1369 0.0686,-0.2741 0.0686,-0.4111 v -3e-4 c -2e-4,-0.3196 -0.29736,-0.6392 -0.89091,-0.9588 l -2.6e-4,-2e-4 c -0.13723,-0.0913 -0.50241,-0.2055 -1.09581,-0.3424 l -3e-4,-10e-5 c -0.548,-0.1369 -1.256,-0.205 -2.1236,-0.205 h -2e-4 c -0.7764,0 -1.6668,0.0912 -2.6715,0.2738 l -2e-4,10e-5 c -1.0047,0.1827 -2.1006,0.548 -3.2879,1.096 l -3e-4,10e-5 c -1.1417,0.5024 -2.3523,1.233 -3.631,2.192 l -2e-4,10e-5 c -1.2788,0.9591 -2.5801,2.1923 -3.9045,3.6994 l -2e-4,2e-4 c -1.4614,1.6898 -2.5803,3.4026 -3.3567,5.138 l -1e-4,2e-4 c -0.7764,1.7355 -1.1647,3.3339 -1.1647,4.7954 v 2e-4 c 0,1.36999796 0.4115,2.580198 1.2335,3.630598 l 2e-4,2e-4 c 0.7764,1.0046 1.941,1.5072 3.4937,1.5072 h 3e-4 c 1.3244,-10e-5 2.58,-0.3198 3.7674,-0.9591 l 10e-5,-1e-4 c 1.1875,-0.6851 2.2608,-1.4843 3.2199,-2.39770004 l -2e-4,2e-4 c -0.006,0.0111 -0.5481,1.09580004 -0.5481,1.09580004 l -3e-4,2e-4 c -0.0193,0.0123 -3.7675,2.3976 -3.7675,2.3976 l -2e-4,2e-4 c -2.0095,1.3244 -3.7222,2.71745 -5.1379,4.1789 l -2e-4,1.7e-4 c -1.4614,1.46144 -2.649,2.90007 -3.5624,4.31584 l -1e-4,1.7e-4 c -0.9134,1.41577 -1.5753,2.78575 -1.9864,4.11017 v 1.7e-4 c -0.4567,1.32441 -0.6852,2.48893 -0.6852,3.49368 v 3e-4 c 1e-4,1.23302 0.3198,2.32884 0.9591,3.28787 l 2e-4,2.4e-4 c 0.5937,1.00462 1.5528,1.50716 2.8772,1.50716 h 2e-4 c 0.9133,-5e-5 1.7581,-0.31976 2.5345,-0.95912 l 2e-4,-1.5e-4 c 0.7763,-0.63938 1.4843,-1.4386 2.1237,-2.39763 l 2e-4,-2.3e-4 c 0.685,-0.91337 1.3013,-1.91802 1.8493,-3.01406 l 1e-4,-1.8e-4 c 0.008,-0.0155 1.5073,-3.0141 1.5073,-3.0141 l 1e-4,-2e-4 c 0.7764,-1.59847 1.5982,-3.4024 2.4659,-5.41188 l 10e-5,-2.4e-4 c 0.8677,-1.96383 1.8268,-4.17917 2.8772,-6.64538 l 2e-4,-10e-5 c 1.6898,-0.9134 3.1515,-1.7582 4.3846,-2.53460004 l 1e-4,-1e-4 c 1.2788,-0.7764 2.4433,-1.529998 3.49373,-2.26069796 l 2.6e-4,-2e-4 c 1.05035,-0.7764 2.03245,-1.5756 2.94581,-2.3976 l 2.1e-4,-2e-4 c 0.86466,-0.7782 1.77147,-1.6623 2.71797,-2.6451 l -6e-5,2e-4 c -0.2615,0.8833 -0.48141,1.7879 -0.65778,2.7138 l -3e-5,2e-4 c -0.13699,0.9591 -0.20564,1.9637 -0.20564,3.01409996 v 3e-4 c 2e-5,0.5479 0.0687,1.096098 0.20567,1.643998 l 7e-5,3e-4 c 0.13702,0.54800004 0.34245,1.05000004 0.61643,1.50660004 l 1.4e-4,2e-4 c 0.27401,0.411 0.63928,0.7537 1.09592,1.0277 l 2.2e-4,1e-4 c 0.45669,0.3196 1.02789,0.4794 1.71285,0.4794 h 1.8e-4 c 0.7307,0 1.50685,-0.2516 2.32888,-0.7539 l 2e-4,-2e-4 c 0.82203,-0.5023 1.64429,-1.1186 2.46632,-1.8493 l 2.1e-4,-2e-4 c 0.86769,-0.77640004 1.71249,-1.62119804 2.53452,-2.534598 l 1.5e-4,-10e-5 c 0.62369,-0.6566 1.21496,-1.297 1.79147,-1.93 l -2e-5,3e-4 c -0.0174,0.2602 -0.0279,0.5157 -0.0279,0.765 v 2e-4 c 2e-5,0.7764 0.11427,1.52999996 0.34261,2.26069996 l 5e-5,2e-4 c 0.18269,0.730598 0.47984,1.39309804 0.89085,1.98669804 l 10e-5,2e-4 c 0.41104,0.5937 0.93616,1.0732 1.57549,1.4385 l 2e-4,1e-4 c 0.685,0.3653 1.4843,0.5477 2.3976,0.5477 h 2e-4 c 1.5985,0 3.1052,-0.4566 4.521,-1.37 l 2e-4,-10e-5 c 1.4157,-0.959 2.6945,-2.05540004 3.8362,-3.28849804 l 3e-4,10e-5 c 0.548,0.1826 1.2104,0.2743 1.9867,0.2743 h 2e-4 c 1.7811,-10e-5 3.4483,-0.61699996 5.001,-1.85009996 l 2e-4,-1e-4 c 1.5985,-1.2331 3.1283004,-2.6487 4.5897004,-4.2471 l 2e-4,-2e-4 c 0.075,-0.075 0.1329,-0.1601 0.1833,-0.25 l 10e-5,-1e-4 c 0.005,-0.0051 0.4578,-0.5032 0.4578,-0.5032 l -10e-5,2e-4 c -0.6394,1.6441 -1.165,3.1283 -1.5761,4.4528 l -10e-5,3e-4 c -0.3653,1.2787 -0.5476,2.37449996 -0.5476,3.28779796 v 3e-4 c 0,1.00470004 0.251,1.87250004 0.7534,2.60320004 l 1e-4,2e-4 c 0.5024,0.6849 1.3703,1.0271 2.6034,1.0271 h 10e-5 c 1.4615,0 3.0144,-0.662 4.65849998,-1.9864 l 2e-4,-2e-4 C 1.1049604,0.63112396 2.7715604,-1.035974 4.4156604,-2.999874 v 2e-4 c -0.0913,0.411 -0.1369,0.7993 -0.1369,1.1646 v 3e-4 c 0,0.0104 0,1.02709996 0,1.02709996 v 3e-4 c 0,1.187298 0.2511,2.26059804 0.7534,3.21959804 l 10e-5,3e-4 c 0.5482,0.9589 1.6445,1.4384 3.2886,1.4384 h 2e-4 c 2.0551996,-1e-4 3.9046996,-0.7081 5.5487996,-2.1239 l 2e-4,-2e-4 c 1.6441,-1.46150004 3.1514,-3.333498 4.5215,-5.616998 l 1e-4,1e-4 c 0.3654,0.6393 0.8905,1.1414 1.5755,1.5067 l 2e-4,10e-5 c 0.685,0.3654 1.4156,0.5482 2.1919,0.5482 h 3e-4 c 1.1417,0 2.3518,-0.4109 3.6305,-1.233 l 2e-4,-10e-5 c 1.3244,-0.8677 2.6262,-2.1009 3.90499,-3.6994 l 2e-4,-2e-4 c 0.0912,-0.0913 0.1598,-0.2286 0.2055,-0.4111 v -2e-4 c 0.0457,-0.1826 0.0682,-0.3424 0.0682,-0.4794 v -3e-4 c -10e-5,-0.2739 -0.1144,-0.5479 -0.3426,-0.8219 l -1e-4,-10e-5 c -0.2284,-0.3196 -0.54809,-0.4794 -0.95909,-0.4794 h -10e-5 c -0.1827,0 -0.365,0.0461 -0.5476,0.1374 l -2e-4,1e-4 c -0.1827,0.0457 -0.4342,0.2512 -0.7538,0.6164 l -10e-5,2e-4 c -1.1874,1.4614 -2.169,2.443 -2.9454,2.9454 l -2e-4,10e-5 c -0.7307,0.5023 -1.4843,0.7539 -2.2607,0.7539 h -2e-4 c -1.0503,-10e-5 -1.5754,-0.5258 -1.5754,-1.5762 v -10e-5 c 0,-0.3654 0.0456,-0.7532 0.1369,-1.1641 l 10e-5,-3e-4 c 0.0913,-0.4566 0.2056,-0.9361 0.3426,-1.4384 v -10e-5 c 0.005,-0.0109 1.0278,-2.1238 1.0278,-2.1238 l 10e-5,-3e-4 c 0.274,-0.548 0.5476,-1.1186 0.8216,-1.7123 l 10e-5,-3e-4 c 0.274,-0.5936 0.5255,-1.1417 0.7538,-1.644 l 10e-5,-3e-4 c 0.2283,-0.5022 0.4107,-0.9361 0.5477,-1.3014 l 10e-5,-2e-4 c 0.1826,-0.3653 0.2738,-0.6163 0.2738,-0.7533 v -2e-4 c -10e-5,-0.3653 -0.1138,-0.6849 -0.3421,-0.9589 l -1e-4,-2e-4 c -0.1827,-0.3196 -0.5255,-0.4794 -1.0278,-0.4794 h -2e-4 c -0.4566,10e-5 -0.8905,0.2742 -1.3015,0.8222 l -10e-5,2e-4 c -0.411,0.6394 -0.9362,1.5985 -1.5755,2.8772 l -10e-5,10e-5 c -0.5937,1.2788 -1.1188,2.6488 -1.5755,4.1102 l -10e-5,2e-4 c -0.6394,1.2787 -1.3474,2.5806 -2.1238,3.905 l -10e-5,10e-5 c -0.7764,1.2788 -1.6213,2.4659 -2.5347,3.5619 l -2e-4,3e-4 c -0.8677,1.0503 -1.7811,1.91819996 -2.7402,2.60319796 l -2e-4,2e-4 C 10.35286,0.90522396 9.3937604,1.247424 8.3890604,1.247424 h -3e-4 c -0.5936,0 -1.0044,-0.1824 -1.2327,-0.54770004 l -1e-4,-2e-4 c -0.1826,-0.3654 -0.2738,-0.867898 -0.2738,-1.507198 v -3e-4 c 10e-5,-1.18739996 0.2286,-2.55739996 0.6852,-4.11009996 l 10e-5,-2e-4 c 0.5024,-1.5527 1.0501,-3.06 1.6438,-4.5215 v 3e-4 c 0,0.0025 0,0.0685 0,0.0685 l 10e-5,-2e-4 c 0.2283,-0.3197 0.5255,-0.7992 0.8907996,-1.4385 l 10e-5,-2e-4 c 0.411,-0.6393 0.7988,-1.3012 1.1641,-1.9863 l 10e-5,-10e-5 c 0.411,-0.7307 0.7538,-1.4162 1.0278,-2.0555 l 10e-5,-2e-4 c 0.3196,-0.6393 0.4794,-1.1414 0.4794,-1.5067 v -3e-4 c 0,-0.3196 -0.1374,-0.6167 -0.4113,-0.8906 l -10e-5,-2e-4 c -0.2284,-0.2739 -0.548,-0.4107 -0.959,-0.4107 h -2e-4 c -0.411,10e-5 -0.7306,0.1143 -0.9589,0.3427 l -2e-4,10e-5 c -0.2283,0.1827 -0.4106,0.365 -0.5475996,0.5476 l -10e-5,2e-4 c -0.2741,0.3654 -0.6849,1.0965 -1.2329,2.1925 l -10e-5,2e-4 c -0.5481,1.0961 -1.1418,2.3974 -1.7812,3.9044 v -2e-4 c 0,-0.0025 0,-0.068 0,-0.068 l -10e-5,2e-4 c -0.8677,1.3244 -1.8268,2.6944 -2.8772,4.1102 l -2e-4,10e-5 c -1.0504,1.4158 -2.1237,2.7171 -3.21980002,3.9045 l -10e-5,2e-4 c -1.0961,1.1417 -2.16939998,2.10079996 -3.21979998,2.87719796 l -3e-4,2e-4 c -1.0504,0.7763 -2.0094,1.16460004 -2.8771,1.16460004 h -2e-4 c -0.4109,-10e-5 -0.6163,-0.2968 -0.6163,-0.89040004 v -3e-4 c 0,-0.593698 0.1143,-1.324698 0.3426,-2.19239796 l 10e-5,-2e-4 c 0.2283,-0.8677 0.525,-1.8037 0.8903,-2.8084 l 10e-5,-2e-4 c 0.411,-1.0504 0.845,-2.1237 1.3016,-3.2197 l 2e-4,-3e-4 c 0.4566,-1.096 0.9136,-2.1237 1.3703,-3.0827 l 10e-5,-2e-4 c 0.007,-0.0155 1.30109998,-3.0141 1.30109998,-3.0141 l 1e-4,-3e-4 c 0.2284,-0.5936 0.4568,-1.1412 0.6851,-1.6436 l 2e-4,-2e-4 c 0.2739,-0.5023 0.4337,-0.9362 0.4794,-1.3015 v -2e-4 c 0.0456,-0.4109 -0.0686,-0.7306 -0.3426,-0.9589 l -1e-4,-10e-5 c -0.274,-0.274 -0.5937,-0.4112 -0.959,-0.4112 h -3e-4 c -0.54789998,10e-5 -1.00439998,0.3198 -1.36969998,0.9591 l -10e-5,2e-4 c -0.3197,0.548 -0.6624,1.1192 -1.0277,1.7128 l -2e-4,3e-4 c -0.3653,0.548 -0.8218,1.1643 -1.3698,1.8492 l -10e-5,2e-4 c -0.5023,0.6394 -1.1187,1.393 -1.8494,2.2607 l -10e-5,2e-4 c -0.6851,0.822 -1.5529,1.8036 -2.6033,2.9453 l -2e-4,2e-4 c -0.0504,0.0505 -0.093,0.1165 -0.1295,0.1947 l -2e-4,2e-4 c -1.5268004,1.7257 -2.8862004,3.0112 -4.0740004,3.8471 l -1e-4,1e-4 c -1.1874,0.822 -2.3064,1.2329 -3.3568,1.2329 h -2e-4 c -0.004,0 -0.2049,0 -0.2049,0 l 10e-5,-2e-4 c 0.959,-1.4615 1.7808,-3.0369 2.4659,-4.7267 v -2e-4 c 0.7307,-1.6898 1.096,-3.4937 1.096,-5.4118 v -3e-4 c 0,-0.5023 -0.0456,-1.0504 -0.1369,-1.6441 l -10e-5,-3e-4 c -0.0913,-0.6393 -0.2737,-1.233 -0.5477,-1.781 l -10e-5,-2e-4 c -0.2284,-0.548 -0.5711,-1.0044 -1.0277,-1.3697 l -3e-4,-2e-4 c -0.4567,-0.3652 -1.0504,-0.5481 -1.781,-0.5481 h -3e-4 c -1.0503,10e-5 -1.9863,0.3884 -2.8083,1.1648 l -2e-4,2e-4 c -0.8221,0.7307 -1.507,1.6442 -2.055,2.7402 l -2e-4,3e-4 c -0.5479,1.096 -0.9593,2.2374 -1.2333,3.4248 l -1e-4,3e-4 c -0.274,1.1873 -0.4108,2.215 -0.4108,3.0827 v 3e-4 c 10e-5,2.6945 0.7307,4.7269 2.1922,6.097 l -2e-4,2e-4 c -0.7764,0.7307 -1.7124,1.48429996 -2.8085,2.26069796 l -2e-4,1e-4 c -1.0504,0.7307 -2.1006,1.09590004 -3.151,1.09590004 h -2e-4 c -0.8677,0 -1.507,-0.36530004 -1.918,-1.09600004 l -10e-5,-2e-4 c -0.411,-0.730698 -0.6164,-1.55299796 -0.6164,-2.46639796 v -2e-4 c 0,-1.0047 0.1599,-2.1006 0.4795,-3.2879 l 10e-5,-3e-4 c 0.3654,-1.1874 0.8905,-2.3749 1.5756,-3.5623 v -10e-5 c 0.6851,-1.2331 1.5069,-2.3977 2.466,-3.4937 l 1e-4,-2e-4 c 0.959,-1.1417 2.0554,-2.1233 3.2885,-2.9454 l 2e-4,-2e-4 c 0.411,-0.3196 0.6163,-0.7079 0.6163,-1.1646 v -3e-4 c -10e-5,-0.3196 -0.1374,-0.6166 -0.4113,-0.8906 l -10e-5,-10e-5 c -0.274,-0.274 -0.5937,-0.4107 -0.959,-0.4107 h -2e-4 c -0.0913,0 -0.2281,0.0456 -0.4106,0.1369 l -3e-4,1e-4 c -0.137,0.0457 -0.2967,0.1143 -0.4793,0.2056 l -2e-4,10e-5 c -1.4614,0.9591 -2.7402,2.078 -3.8363,3.3568 l -10e-5,2e-4 c -1.0961,1.2787 -2.0095,2.6256 -2.7403,4.0414 v 2e-4 c -0.32926,0.6003 -0.61902,1.2009 -0.87433,1.8013 l -1.8e-4,10e-5 c -0.0453,0.0383 -0.0913,0.0722 -0.13573,0.1166 l -1.8e-4,2e-4 c -0.36533,0.3654 -0.77669,0.7993 -1.23333,1.3016 l -4.5e-4,5e-4 c -0.45659,0.5022 -0.936,1.0272 -1.43823,1.5751 l -3.3e-4,4e-4 c -0.68497,0.7763 -1.39242,1.5754 -2.12305,2.3974 l -3.6e-4,4e-4 c -0.73062,0.7762 -1.43858,1.5072 -2.12354,2.1922 l -3.4e-4,3e-4 c -0.68495,0.63929996 -1.32425,1.16429796 -1.91789,1.57529796 l -2.7e-4,2e-4 c -0.54794,0.4109 -0.98181,0.61630004 -1.30146,0.61630004 -1.8e-4,0 -3.6e-4,0 -5.4e-4,0 -0.54775,-10e-5 -0.88982,-0.18300004 -1.02679,-0.54830004 l -9e-5,-4e-4 c -0.0913,-0.4109 -0.13685,-0.890398 -0.13685,-1.438198 v -4e-4 c 3e-5,-0.82199996 0.0912,-1.71239996 0.27388,-2.67129996 l 1.2e-4,-5e-4 c 0.22833,-1.0046 0.47934,-2.0322 0.75333,-3.0825 l 1.5e-4,-5e-4 c 0.31966,-1.0503 0.66238,-2.0549 1.02769,-3.0138 l 1.8e-4,-5e-4 c 0.36531,-1.0046 0.7075,-1.9174 1.02715,-2.7394 l 3.2e-4,-4e-4 c 1.32439,-1.6441 2.74043,-3.4941 4.24748,-5.5491 l 3.8e-4,-5e-4 c 1.55271,-2.0551 3.05941,-4.11 4.52079,-6.165 l 3.6e-4,-5e-4 c 1.46131,-2.0551 2.78571,-4.0188 3.97301,-5.8912 l 3e-4,-4e-4 c 1.233,-1.9181 2.1695,-3.5395 2.8089,-4.8639 l 10e-5,-2e-4 c 0.274,-0.5023 0.4563,-1.0044 0.5476,-1.5067 l 10e-5,-2e-4 c 0.137,-0.548 0.2056,-1.0731 0.2056,-1.5754 v -4e-4 c -10e-5,-0.8219 -0.2286,-1.5985 -0.6852,-2.3292 l -10e-5,-10e-5 c -0.4111,-0.7763 -1.1417,-1.1641 -2.192,-1.1641 z m -0.0455,1.7811 m -0.0227,0.8906 c 0.0305,0 0.0534,0.0304 0.0687,0.0912 0.0607,3e-4 0.106,0.0611 0.1364,0.1826 0.0153,0.0459 0.023,0.107 0.0231,0.1833 0.0303,0.0913 0.0456,0.2131 0.0456,0.365 0,0.0763 -0.0152,0.1753 -0.0456,0.2973 -10e-5,0.1521 -0.0305,0.3498 -0.0913,0.5931 -0.0153,0.1068 -0.0534,0.2212 -0.1143,0.3432 -0.0305,0.213 -0.1066,0.4413 -0.2283,0.6847 -0.1371,0.2741 -0.3199,0.6015 -0.5483,0.9822 -0.2741,0.5481 -0.6396,1.2025 -1.0962,1.9636 -0.2131,0.3653 -0.4643,0.7611 -0.7535,1.1872 -0.4263,0.7308 -0.9288,1.5226 -1.5073,2.3752 -0.27401,0.4263 -0.57849,0.8677 -0.91338,1.3243 -0.5481,0.8526 -1.15715,1.7357 -1.82705,2.6492 -0.31966,0.4566 -0.64684,0.9132 -0.98173,1.3699 -0.63937,0.9133 -1.29378,1.8266 -1.9636,2.74 0.28922,-0.7155 0.5937,-1.4537 0.91336,-2.2148 0.57855,-1.4311 1.18761,-2.9078 1.82706,-4.4303 0.33489,-0.7611 0.67727,-1.4537 1.02737,-2.0778 0.6699,-1.5225 1.35478,-2.908 2.05517,-4.1564 0.3196,-0.5632 0.586,-0.9513 0.7991,-1.1644 0.6395,-1.1266 1.1724,-1.9031 1.5987,-2.3294 0.2283,-0.213 0.4034,-0.3195 0.5252,-0.3195 0.4567,-0.4263 0.8072,-0.6394 1.0508,-0.6394 m 3.0313,7.5587 z m 6.0629,15.1174 c 0.1825,10e-5 0.3198,0.1143 0.4111,0.3426 l 10e-5,2e-4 c 0.137,0.1827 0.2281,0.4336 0.2738,0.7532 v 3e-4 c 0.0457,0.274 0.0687,0.5705 0.0687,0.8901 l 10e-5,3e-4 c 0.0456,0.3196 0.0681,0.5711 0.0681,0.7537 v 2e-4 c 0,1.4614 -0.3422,2.9912 -1.0273,4.5897 l -10e-5,2e-4 c -0.685,1.5984 -1.4843,3.0596 -2.3977,4.384 l -1e-4,-1e-4 c -0.5023,-0.5024 -0.845,-1.1643 -1.0277,-1.9863 l -10e-5,-2e-4 c -0.1369,-0.822 -0.2056,-1.4844 -0.2056,-1.9868 v -3e-4 c 0,-0.6393 0.0918,-1.3929 0.2744,-2.2605 l 10e-5,-3e-4 c 0.1826,-0.9133 0.4337,-1.7581 0.7534,-2.5345 v -2e-4 c 0.3654,-0.822 0.7763,-1.5069 1.233,-2.0549 l 1e-4,-2e-4 c 0.5023,-0.5936 1.0275,-0.8902 1.5755,-0.8902 v 0 z m -12.0308,0.0456 z m -24.0611,0.0913 c 0.008,0 0.822,0 0.822,0 l -1e-4,2e-4 c -0.6851,1.4615 -1.5068,3.0825 -2.4659,4.8636 l -1e-4,2e-4 c -0.9591,1.7812 -2.0099,3.4713 -3.1517,5.0698 l -1e-4,2e-4 c -1.0961,1.5984 -2.2606,3.037 -3.4937,4.3158 l -2e-4,2e-4 c -1.233,1.23299996 -2.4432,2.07779796 -3.6306,2.53449796 l -2e-4,10e-5 c -0.5023,0.13700004 -0.9588,0.20510004 -1.3697,0.20510004 h -3e-4 c -0.6393,-10e-5 -1.1418,-0.20550004 -1.5071,-0.61650004 l -2e-4,-2e-4 c -0.3653,-0.4567 -0.5481,-1.072998 -0.5481,-1.84929796 v -3e-4 c 0,-1.0504 0.2972,-2.2835 0.8909,-3.6992 l 10e-5,-2e-4 c 0.6394,-1.4158 1.621,-2.8775 2.9454,-4.3846 l 2e-4,-10e-5 c 1.1417,-1.3701 2.2607,-2.466 3.3567,-3.288 l 2e-4,-10e-5 c 1.1417,-0.8221 2.1925,-1.4615 3.1516,-1.9182 l 2e-4,-10e-5 c 1.0047,-0.5023 1.9176,-0.822 2.7397,-0.959 h 2e-4 c 0.8677,-0.1827 1.6213,-0.2739 2.2606,-0.2739 z m -2.9232,7.239 z m -5.846,14.478208 c -0.006,0.0137 -1.1642,2.67151 -1.1642,2.67151 l -1e-4,2.6e-4 c -0.4567,1.05036 -0.8906,2.055 -1.3017,3.01403 l -1e-4,2.4e-4 c -0.411,1.0047 -0.8449,1.96374 -1.3016,2.8771 l -1e-4,2.8e-4 c -1.0504,2.23779 -2.0326,4.06475 -2.946,5.48052 l -1e-4,1.8e-4 c -0.959,1.46138 -1.8495,2.19194 -2.6715,2.19194 h -3e-4 c -0.4565,-8e-5 -0.7531,-0.22859 -0.8901,-0.68523 l -1e-4,-2.2e-4 c -0.1826,-0.45666 -0.2743,-0.93615 -0.2743,-1.43845 v -1.9e-4 c 0,-0.77639 0.1829,-1.71239 0.5483,-2.80843 v -2.5e-4 c 0.3198,-1.05038 0.868,-2.19234 1.6443,-3.42538 l 10e-5,-1.4e-4 c 0.7764,-1.18743 1.8037,-2.44316 3.0824,-3.76759 l 2e-4,-1.5e-4 c 1.3244,-1.27876 2.946,-2.53448 4.8641,-3.76757 l 10e-5,-9e-5 c 0.004,-0.004 0.4107,-0.34253 0.4107,-0.34253"
           style="font-style:normal;font-variant:normal;font-weight:normal;font-stretch:normal;font-size:68.5078px;line-height:1.25;font-family:'Learning Curve';-inkscape-font-specification:'Learning Curve, Normal';font-variant-ligatures:normal;font-variant-caps:normal;font-variant-numeric:normal;font-variant-east-asian:normal;fill:#aae7aa;fill-opacity:1;stroke:#aae7aa;stroke-width:0.582083;stroke-linecap:round;stroke-linejoin:round;stroke-miterlimit:4;stroke-dasharray:none;stroke-opacity:1;filter:url(#filter1631)" />
        <path
           id="path852"
           style="font-style:normal;font-variant:normal;font-weight:normal;font-stretch:normal;font-size:68.5078px;line-height:1.25;font-family:'Learning Curve';-inkscape-font-specification:'Learning Curve, Normal';font-variant-ligatures:normal;font-variant-caps:normal;font-variant-numeric:normal;font-variant-east-asian:normal;fill:#ffffff;fill-opacity:1;stroke:none;stroke-width:0;stroke-miterlimit:4;stroke-dasharray:none"
           d="m -25.803636,-41.363885 c -0.73075,0 -1.64427,0.365307 -2.7404,1.096057 -1.09613,0.73075 -2.3063,2.306235 -3.63079,4.726844 -0.22836,0.411046 -0.59366,1.11912 -1.09605,2.123901 -0.50239,0.959109 -1.16487,2.306083 -1.98696,4.041614 -0.77642,1.735531 -1.68943,3.882293 -2.73989,6.439917 -1.05045,2.557624 -2.26114,5.640454 -3.6313,9.248531 -1.05045,1.370157 -1.96398,2.512194 -2.7404,3.425631 -0.73075,0.867765 -1.25591,1.461067 -1.57562,1.78077 -0.0768,0.07675 -0.13559,0.164599 -0.18655,0.256832 -0.81503,0.848524 -1.58236,1.61698 -2.28513,2.278414 -0.77642,0.685078 -1.55263,1.324494 -2.32906,1.918229 -0.77642,0.548062 -1.57569,1.095765 -2.39778,1.643827 -0.8221,0.50239 -1.71256,1.027552 -2.67167,1.575615 l 6.85074,-15.482776 c 0.0457,-0.09134 0.0913,-0.205083 0.13694,-0.342099 0.0457,-0.137015 0.0687,-0.274328 0.0687,-0.411344 0,-0.319703 -0.29716,-0.639411 -0.8909,-0.959115 -0.13701,-0.09134 -0.50232,-0.205599 -1.09606,-0.342614 -0.54806,-0.137016 -1.25613,-0.205156 -2.1239,-0.205156 -0.77642,0 -1.66689,0.0912 -2.67167,0.273885 -1.00478,0.182688 -2.1007,0.547995 -3.28817,1.096057 -1.1418,0.502391 -2.35249,1.233006 -3.6313,2.192115 -1.27882,0.959109 -2.58019,2.192344 -3.90467,3.699516 -1.4615,1.689859 -2.58048,3.402657 -3.3569,5.138187 -0.77643,1.735531 -1.16479,3.334073 -1.16479,4.795573 0,1.370156 0.41142,2.580334 1.23351,3.630787 0.77643,1.00478 1.94101,1.507402 3.49385,1.507402 1.32448,0 2.58026,-0.319709 3.76773,-0.959116 1.18747,-0.685078 2.26085,-1.484349 3.21996,-2.397786 l -0.54829,1.096057 -3.76773,2.397785 c -2.00956,1.324486 -3.72236,2.717575 -5.13819,4.179076 -1.4615,1.461497 -2.64913,2.900187 -3.56257,4.316015 -0.91344,1.415828 -1.5754,2.785859 -1.98644,4.110342 -0.45672,1.324486 -0.68523,2.489062 -0.68523,3.493844 0,1.233141 0.31971,2.329061 0.95911,3.288173 0.59374,1.004779 1.55286,1.5074 2.87735,1.5074 0.91343,0 1.7583,-0.319709 2.53473,-0.959115 0.77642,-0.639405 1.48449,-1.438677 2.1239,-2.397786 0.68507,-0.913437 1.30143,-1.918161 1.8495,-3.014287 l 1.5074,-3.014287 c 0.77642,-1.598514 1.59823,-3.40251 2.466,-5.41207 0.86776,-1.963891 1.82689,-4.179311 2.87734,-6.64559 1.68986,-0.913438 3.1516,-1.758307 4.38475,-2.534729 1.27881,-0.776422 2.44339,-1.530094 3.49384,-2.260844 1.05045,-0.776422 2.03263,-1.575693 2.94607,-2.397787 0.86472,-0.778249 1.7716,-1.662416 2.71818,-2.645316 -0.26153,0.883441 -0.48145,1.788031 -0.65784,2.714046 -0.13701,0.959109 -0.20567,1.963833 -0.20567,3.014286 0,0.548062 0.0687,1.096282 0.20567,1.644344 0.13702,0.548062 0.34247,1.050166 0.6165,1.506885 0.27403,0.411047 0.63934,0.753814 1.09606,1.027843 0.45672,0.319704 1.02799,0.479557 1.71307,0.479557 0.73075,0 1.50697,-0.251568 2.32906,-0.753958 0.82209,-0.50239 1.64442,-1.11875 2.46651,-1.849499 0.86777,-0.776422 1.71264,-1.621292 2.53473,-2.534729 0.62376,-0.656582 1.21507,-1.297131 1.79163,-1.930115 -0.0174,0.260285 -0.0279,0.515938 -0.0279,0.765328 0,0.776422 0.11425,1.530094 0.34261,2.260844 0.18269,0.73075 0.47986,1.393225 0.8909,1.986959 0.41105,0.593734 0.93621,1.073296 1.57562,1.438672 0.68508,0.365374 1.48434,0.54777 2.39778,0.54777 1.59852,0 3.10535,-0.456504 4.52117,-1.369942 1.41583,-0.959109 2.69466,-2.055548 3.83646,-3.288688 0.54806,0.182687 1.21054,0.274401 1.98696,0.274401 1.7812,0 3.4484,-0.616876 5.00125,-1.850016 1.59851,-1.23314 3.1284004,-2.64877 4.5899004,-4.247286 0.0751,-0.07507 0.13306,-0.160231 0.18345,-0.250114 l 0.45785,-0.503328 c -0.6394,1.644187 -1.16508,3.128474 -1.57613,4.452958 -0.36537,1.278813 -0.54777,2.374734 -0.54777,3.288171 0,1.004781 0.25105,1.872709 0.75344,2.603459 0.50239,0.685079 1.37032,1.027328 2.60346,1.027328 1.4615,0 3.01444,-0.661958 4.65862995,-1.986443 1.68986005,-1.370156 3.35654005,-3.037354 5.00073005,-5.001245 -0.0913,0.411048 -0.13694,0.799413 -0.13694,1.164787 v 1.027328 c 0,1.187468 0.25105,2.260849 0.75344,3.219958 0.54806,0.95911 1.6445,1.438672 3.288687,1.438672 2.0552296,0 3.9048196,-0.708073 5.5490096,-2.123901 1.64419,-1.4615 3.15153,-3.333635 4.52169,-5.617229 0.36537,0.639406 0.89054,1.14151 1.57561,1.506885 0.68508,0.365375 1.4157,0.548287 2.19212,0.548287 1.1418,0 2.35197,-0.410906 3.63078,-1.233 1.32448,-0.867765 2.62637,-2.101 3.90519,-3.699515 0.0913,-0.09134 0.15999,-0.228657 0.20567,-0.411345 0.0457,-0.182687 0.0682,-0.342541 0.0682,-0.479557 0,-0.274031 -0.11425,-0.548141 -0.34261,-0.822172 -0.22836,-0.319703 -0.54807,-0.479557 -0.95912,-0.479557 -0.18269,0 -0.36508,0.04611 -0.54777,0.137459 -0.18269,0.04567 -0.43425,0.251125 -0.75396,0.6165 -1.18747,1.461499 -2.16913,2.443166 -2.94555,2.945557 -0.73075,0.50239 -1.48442,0.753959 -2.26084,0.753959 -1.05046,0 -1.57562,-0.525679 -1.57562,-1.576132 0,-0.365375 0.0456,-0.753223 0.13695,-1.16427 0.0913,-0.456718 0.2056,-0.936281 0.34261,-1.438671 l 1.02785,-2.123902 c 0.27403,-0.548062 0.54762,-1.118823 0.82165,-1.712557 0.27403,-0.593734 0.5256,-1.141953 0.75396,-1.644344 0.22836,-0.502391 0.41075,-0.936355 0.54777,-1.301729 0.18269,-0.365375 0.27388,-0.616427 0.27388,-0.753443 0,-0.365375 -0.11373,-0.685083 -0.34209,-0.959115 -0.18269,-0.319702 -0.52546,-0.479557 -1.02785,-0.479557 -0.45671,0 -0.89068,0.27411 -1.30173,0.822172 -0.41104,0.639406 -0.9362,1.598532 -1.57561,2.877344 -0.59374,1.278813 -1.1189,2.648844 -1.57561,4.110344 -0.63941,1.278812 -1.34749,2.580704 -2.12391,3.905188 -0.77642,1.278812 -1.62129,2.465931 -2.53472,3.562056 -0.86777,1.050453 -1.7813,1.918381 -2.74041,2.603459 -0.91343,0.685078 -1.8725596,1.027327 -2.8773396,1.027327 -0.59373,0 -1.004637,-0.182395 -1.232997,-0.54777 -0.18269,-0.365375 -0.27389,-0.867996 -0.27389,-1.507401 0,-1.187469 0.22852,-2.5575 0.685237,-4.110344 0.50239,-1.552843 1.05009,-3.060188 1.64382,-4.521688 v 0.06873 c 0.22836,-0.319703 0.52553,-0.799266 0.8908996,-1.438672 0.41105,-0.639407 0.7989,-1.301364 1.16427,-1.986442 0.41105,-0.730749 0.75382,-1.416282 1.02785,-2.055689 0.3197,-0.639406 0.47955,-1.141509 0.47955,-1.506884 0,-0.319703 -0.13731,-0.616871 -0.41134,-0.890902 -0.22836,-0.274031 -0.54807,-0.410828 -0.95911,-0.410828 -0.41105,0 -0.73076,0.114256 -0.95912,0.342615 -0.22836,0.182687 -0.41075,0.365083 -0.5477696,0.54777 -0.27403,0.365375 -0.68494,1.096506 -1.233,2.192631 -0.54806,1.096125 -1.14188,2.3975 -1.781287,3.904672 v -0.06821 c -0.86776,1.324484 -1.82689,2.694516 -2.87734,4.110343 -1.05045,1.415828 -2.12383,2.717203 -3.21996005,3.904671 -1.09612,1.141797 -2.16949995,2.100923 -3.21995995,2.877344 -1.05045,0.776422 -2.00957,1.164787 -2.87734,1.164787 -0.41105,0 -0.6165,-0.29665 -0.6165,-0.890385 0,-0.593734 0.11426,-1.324866 0.34261,-2.192631 0.22836,-0.867765 0.52502,-1.803833 0.89039,-2.808614 0.41105,-1.050453 0.84501,-2.123834 1.30173,-3.219958 0.45672,-1.096125 0.91374,-2.123907 1.37046,-3.083016 l 1.30120995,-3.014287 c 0.22837,-0.593737 0.45688,-1.14144 0.68524,-1.64383 0.27403,-0.502391 0.43388,-0.936355 0.47955,-1.30173 0.0457,-0.411046 -0.0686,-0.730755 -0.34261,-0.959114 -0.27403,-0.274031 -0.59374,-0.411345 -0.95912,-0.411345 -0.54805995,0 -1.00455995,0.319709 -1.36993995,0.959115 -0.3197,0.548062 -0.66247,1.119339 -1.02784,1.713074 -0.36538,0.548062 -0.82188,1.164422 -1.36995,1.849499 -0.50238,0.639407 -1.11874,1.393079 -1.84949,2.260844 -0.68508,0.822094 -1.55301,1.80376 -2.60346,2.945557 -0.0505,0.05045 -0.0932,0.116507 -0.12971,0.19482 -1.5268904,1.725859 -2.8863104,3.011412 -4.0741704,3.847311 -1.18747,0.822093 -2.30645,1.232999 -3.3569,1.232999 h -0.20516 c 0.95911,-1.461499 1.78093,-3.036984 2.466,-4.726843 0.73075,-1.689859 1.09606,-3.493854 1.09606,-5.412073 0,-0.50239 -0.0456,-1.05061 -0.13694,-1.644344 -0.0913,-0.639406 -0.27374,-1.233224 -0.54777,-1.781287 -0.22836,-0.548062 -0.57113,-1.004567 -1.02785,-1.369942 -0.45672,-0.365375 -1.05053,-0.548287 -1.78128,-0.548287 -1.05046,0 -1.98652,0.388365 -2.80862,1.164787 -0.82209,0.73075 -1.50711,1.644276 -2.05517,2.740401 -0.54806,1.096125 -0.95949,2.237646 -1.23352,3.425114 -0.27403,1.187469 -0.41082,2.215251 -0.41082,3.083016 0,2.69464 0.73061,4.727146 2.19211,6.097302 -0.77642,0.73075 -1.71249,1.484423 -2.80861,2.260844 -1.05046,0.73075 -2.10078,1.096057 -3.15123,1.096057 -0.86777,0 -1.50718,-0.365307 -1.91823,-1.096057 -0.41105,-0.730749 -0.6165,-1.553079 -0.6165,-2.466516 0,-1.004781 0.15985,-2.100702 0.47956,-3.288171 0.36537,-1.187468 0.89053,-2.375105 1.57561,-3.562573 0.68508,-1.233141 1.50689,-2.397719 2.466,-3.493844 0.95911,-1.141796 2.05555,-2.123463 3.28869,-2.945557 0.41105,-0.319703 0.6165,-0.708068 0.6165,-1.164787 0,-0.319703 -0.13731,-0.61687 -0.41135,-0.890901 -0.27403,-0.274032 -0.59374,-0.410828 -0.95911,-0.410828 -0.0913,0 -0.22814,0.0456 -0.41083,0.136942 -0.13701,0.04567 -0.29687,0.114329 -0.47956,0.205673 -1.4615,0.959109 -2.74033,2.078088 -3.83645,3.356901 -1.09613,1.278813 -2.00966,2.625786 -2.74041,4.041614 -0.32924,0.600388 -0.61903,1.201052 -0.87436,1.80144 -0.0454,0.03832 -0.0914,0.07227 -0.13591,0.116789 -0.36538,0.365375 -0.7768,0.799339 -1.23352,1.301729 -0.45672,0.502391 -0.93628,1.027553 -1.43867,1.575615 -0.68508,0.776422 -1.39263,1.575693 -2.12338,2.397786 -0.73075,0.776422 -1.43883,1.507553 -2.1239,2.192631 -0.68508,0.639406 -1.3245,1.164568 -1.91823,1.575614 -0.54807,0.411047 -0.98203,0.6165 -1.30173,0.6165 -0.54807,0 -0.89031,-0.182912 -1.02733,-0.548287 -0.0913,-0.411046 -0.13694,-0.890609 -0.13694,-1.438671 0,-0.822094 0.0912,-1.712563 0.27388,-2.671672 0.22836,-1.004781 0.47941,-2.032563 0.75344,-3.083016 0.31971,-1.050452 0.66247,-2.055177 1.02785,-3.014286 0.36537,-1.004781 0.70762,-1.917791 1.02733,-2.739884 1.32448,-1.644187 2.74063,-3.494299 4.2478,-5.549533 1.55284,-2.055234 3.05967,-4.110281 4.52117,-6.165515 1.4615,-2.055234 2.78593,-4.019084 3.9734,-5.89163 1.23314,-1.918219 2.16973,-3.539819 2.80913,-4.864303 0.27403,-0.502391 0.45643,-1.004494 0.54777,-1.506885 0.13702,-0.548062 0.20568,-1.073224 0.20568,-1.575614 0,-0.822094 -0.22852,-1.598824 -0.68524,-2.329574 -0.41104,-0.776422 -1.14166,-1.16427 -2.19211,-1.16427 z m -0.0682,2.671672 c 0.0913,0 0.15948,0.0912 0.20516,0.273885 0.0457,0.137016 0.0687,0.319927 0.0687,0.548287 0,0.228359 -0.0456,0.52501 -0.13695,0.890385 -0.0457,0.319703 -0.15992,0.662469 -0.34261,1.027844 -0.41105,0.822093 -0.95927,1.80376 -1.64434,2.945557 -0.63941,1.096125 -1.39308,2.283761 -2.26085,3.562573 -0.82209,1.278812 -1.73562,2.603245 -2.7404,3.973401 -0.95911,1.370156 -1.94078,2.740188 -2.94556,4.110344 0.86777,-2.146578 1.78129,-4.36148 2.7404,-6.645073 1.00479,-2.283593 2.03205,-4.361698 3.0825,-6.234245 0.95911,-1.689859 1.75838,-2.854438 2.39779,-3.493844 0.68508,-0.639406 1.21076,-0.959114 1.57613,-0.959114 z m 9.09402,22.676135 c 0.18269,0 0.32,0.114256 0.41134,0.342615 0.13702,0.182687 0.22822,0.433739 0.27389,0.753442 0.0457,0.274031 0.0687,0.570683 0.0687,0.890386 0.0457,0.319703 0.0682,0.571272 0.0682,0.753959 0,1.461499 -0.34225,2.991385 -1.02733,4.589901 -0.68508,1.598515 -1.48435,3.059744 -2.39778,4.384228 -0.50239,-0.50239 -0.84516,-1.164348 -1.02785,-1.986442 -0.13702,-0.822093 -0.20567,-1.484568 -0.20567,-1.986959 0,-0.639406 0.0917,-1.393078 0.2744,-2.260844 0.18269,-0.913437 0.43374,-1.758307 0.75344,-2.534729 0.36538,-0.822093 0.77628,-1.507109 1.233,-2.055172 0.50239,-0.593734 1.02755,-0.890385 1.57562,-0.890385 z m -36.09186,0.136943 h 0.82217 c -0.68507,1.4615 -1.50689,3.082583 -2.46599,4.863786 -0.95911,1.781203 -2.00995,3.471459 -3.15175,5.069975 -1.09612,1.598515 -2.2607,3.037203 -3.49384,4.316015 -1.23314,1.233141 -2.44332,2.078011 -3.63079,2.534729 -0.50239,0.137016 -0.95889,0.205156 -1.36994,0.205156 -0.63941,0 -1.14203,-0.205453 -1.5074,-0.6165 -0.36538,-0.456719 -0.54829,-1.073078 -0.54829,-1.8495 0,-1.050453 0.29717,-2.283688 0.8909,-3.699515 0.63941,-1.415828 1.62107,-2.877574 2.94556,-4.384746 1.14179,-1.370155 2.26077,-2.466077 3.3569,-3.288171 1.1418,-0.822093 2.19264,-1.46151 3.15174,-1.91823 1.00479,-0.50239 1.9178,-0.822098 2.73989,-0.959114 0.86776,-0.182688 1.62144,-0.273885 2.26084,-0.273885 z m -8.76897,21.71702 -1.16427,2.671672 c -0.45672,1.050454 -0.89068,2.055178 -1.30173,3.014287 -0.41105,1.004781 -0.84501,1.963907 -1.30173,2.877344 -1.05045,2.237919 -2.03264,4.064973 -2.94607,5.480801 -0.95911,1.4615 -1.84958,2.192115 -2.67167,2.192115 -0.45672,0 -0.75337,-0.22851 -0.89039,-0.685228 -0.18269,-0.456721 -0.2744,-0.936284 -0.2744,-1.438672 0,-0.776423 0.18291,-1.712492 0.54829,-2.808616 0.3197,-1.050451 0.86792,-2.192491 1.64434,-3.425629 0.77642,-1.187471 1.80369,-2.443247 3.0825,-3.76773 1.32448,-1.278811 2.94608,-2.534587 4.8643,-3.767728 z" />
      </g>
    </g>
  </g>
</svg>
